%TF.GenerationSoftware,KiCad,Pcbnew,6.0.0*%
%TF.CreationDate,2022-01-30T15:16:09-05:00*%
%TF.ProjectId,stm32wb55ce_development_board,73746d33-3277-4623-9535-63655f646576,rev?*%
%TF.SameCoordinates,Original*%
%TF.FileFunction,Copper,L3,Inr*%
%TF.FilePolarity,Positive*%
%FSLAX46Y46*%
G04 Gerber Fmt 4.6, Leading zero omitted, Abs format (unit mm)*
G04 Created by KiCad (PCBNEW 6.0.0) date 2022-01-30 15:16:09*
%MOMM*%
%LPD*%
G01*
G04 APERTURE LIST*
%TA.AperFunction,ComponentPad*%
%ADD10R,1.700000X1.700000*%
%TD*%
%TA.AperFunction,ComponentPad*%
%ADD11O,1.700000X1.700000*%
%TD*%
%TA.AperFunction,ComponentPad*%
%ADD12O,1.200000X2.400000*%
%TD*%
%TA.AperFunction,ComponentPad*%
%ADD13O,1.158000X2.316000*%
%TD*%
%TA.AperFunction,ViaPad*%
%ADD14C,0.800000*%
%TD*%
%TA.AperFunction,ViaPad*%
%ADD15C,0.500000*%
%TD*%
%TA.AperFunction,Conductor*%
%ADD16C,0.254000*%
%TD*%
%ADD17C,0.350000*%
%ADD18C,0.250000*%
%ADD19O,0.650000X1.950000*%
%ADD20O,0.650000X1.650000*%
G04 APERTURE END LIST*
D10*
%TO.N,+3V3*%
%TO.C,J3*%
X175920000Y-64480000D03*
D11*
%TO.N,GND*%
X175920000Y-67020000D03*
%TO.N,/PA15*%
X175920000Y-69560000D03*
%TO.N,/PB0*%
X175920000Y-72100000D03*
%TO.N,/PB1*%
X175920000Y-74640000D03*
%TO.N,/PA10*%
X175920000Y-77180000D03*
%TO.N,/PB4*%
X175920000Y-79720000D03*
%TO.N,/PB5*%
X175920000Y-82260000D03*
%TO.N,/PB6*%
X175920000Y-84800000D03*
%TO.N,/PB7*%
X175920000Y-87340000D03*
%TO.N,/PB8*%
X175920000Y-89880000D03*
%TO.N,/PB9*%
X175920000Y-92420000D03*
%TD*%
D10*
%TO.N,+3V3*%
%TO.C,J1*%
X155740000Y-64520000D03*
D11*
%TO.N,GND*%
X155740000Y-67060000D03*
%TO.N,/PA0*%
X155740000Y-69600000D03*
%TO.N,/PA1*%
X155740000Y-72140000D03*
%TO.N,/PA2*%
X155740000Y-74680000D03*
%TO.N,/PA3*%
X155740000Y-77220000D03*
%TO.N,/PA4*%
X155740000Y-79760000D03*
%TO.N,/PA5*%
X155740000Y-82300000D03*
%TO.N,/PA6*%
X155740000Y-84840000D03*
%TO.N,/PA7*%
X155740000Y-87380000D03*
%TO.N,/PA8*%
X155740000Y-89920000D03*
%TO.N,/PA9*%
X155740000Y-92460000D03*
%TD*%
D10*
%TO.N,GND*%
%TO.C,J4*%
X158450000Y-73550000D03*
D11*
%TO.N,/PA14*%
X160990000Y-73550000D03*
%TO.N,/PA13*%
X163530000Y-73550000D03*
%TD*%
D12*
%TO.N,Net-(J2-PadS6)*%
%TO.C,J2*%
X161505000Y-65325000D03*
%TO.N,Net-(J2-PadS5)*%
X170145000Y-65325000D03*
D13*
%TO.N,Net-(J2-PadS4)*%
X161505000Y-69150000D03*
%TO.N,Net-(J2-PadS3)*%
X170145000Y-69150000D03*
%TD*%
D14*
%TO.N,GND*%
X166240000Y-74110000D03*
D15*
X169160005Y-81280000D03*
X165050000Y-82030000D03*
D14*
X161800000Y-71230000D03*
X170630000Y-76790000D03*
X160500000Y-75500000D03*
X169740000Y-77120000D03*
X172660000Y-81120000D03*
X173300000Y-74190000D03*
X167950000Y-72440000D03*
X172750000Y-82250000D03*
X163250000Y-76000000D03*
D15*
X169000000Y-75000000D03*
X165900000Y-88850000D03*
X164530000Y-89210000D03*
X167000000Y-88850000D03*
D14*
X167880000Y-88340000D03*
D15*
X166810000Y-86250000D03*
X159185000Y-77400000D03*
X158800000Y-82100000D03*
X159485464Y-84962744D03*
X170900000Y-85700000D03*
%TO.N,+3V3*%
X161750000Y-77000000D03*
D14*
X174250000Y-76000000D03*
D15*
X161250000Y-77250000D03*
D14*
X170520000Y-78850000D03*
X171870000Y-79330000D03*
X167060000Y-75900000D03*
D15*
X164485618Y-87545618D03*
X165930000Y-87830000D03*
X158100000Y-85300000D03*
%TO.N,/RF1*%
X166300000Y-86960000D03*
X167957103Y-86992897D03*
%TO.N,/PB7*%
X162633920Y-77733614D03*
%TO.N,/PB6*%
X163233456Y-77709731D03*
%TO.N,/PB5*%
X163827143Y-77622842D03*
%TO.N,/PB4*%
X164546156Y-77703854D03*
%TO.N,/PA15*%
X165000000Y-76500000D03*
%TO.N,/PA10*%
X168500000Y-78750000D03*
%TO.N,/PB0*%
X170000000Y-84000000D03*
X174000000Y-79000000D03*
X174000000Y-77350000D03*
%TO.N,/PA9*%
X164963226Y-86222957D03*
%TO.N,/PA8*%
X164344976Y-86207900D03*
%TO.N,/PA1*%
X160620006Y-83869996D03*
%TO.N,/PA0*%
X160793315Y-83250010D03*
%TO.N,/RESET*%
X165800000Y-72600000D03*
%TO.N,/PB9*%
X160180002Y-81780000D03*
%TO.N,/PB8*%
X160667281Y-81181854D03*
%TO.N,/PA7*%
X163671457Y-86336682D03*
%TO.N,/PA6*%
X163124335Y-86582997D03*
%TO.N,/PA5*%
X162527921Y-86517385D03*
%TO.N,/PA4*%
X161750000Y-86500000D03*
%TO.N,/PA3*%
X161434517Y-85728421D03*
%TO.N,/PA2*%
X160750000Y-84500000D03*
D14*
%TO.N,GND*%
X173050000Y-64150000D03*
D15*
X159300000Y-69675000D03*
D14*
X162625000Y-69975000D03*
X169050000Y-69975000D03*
%TO.N,+3V3*%
X158625000Y-64175000D03*
D15*
%TO.N,/BOOT0*%
X160200000Y-80755000D03*
X159775000Y-71650000D03*
%TO.N,/RESET*%
X172125000Y-70200000D03*
%TD*%
%TO.N,GND*%
D16*
X174618815Y-63178815D02*
X174539463Y-63275506D01*
X174480498Y-63385820D01*
X174444188Y-63505518D01*
X174431928Y-63630000D01*
X174431928Y-65330000D01*
X174444188Y-65454482D01*
X174480498Y-65574180D01*
X174539463Y-65684494D01*
X174618815Y-65781185D01*
X174715506Y-65860537D01*
X174825820Y-65919502D01*
X174906466Y-65943966D01*
X174822412Y-66019731D01*
X174648359Y-66253080D01*
X174523175Y-66515901D01*
X174478524Y-66663110D01*
X174599845Y-66893000D01*
X175793000Y-66893000D01*
X175793000Y-66873000D01*
X176047000Y-66873000D01*
X176047000Y-66893000D01*
X176067000Y-66893000D01*
X176067000Y-67147000D01*
X176047000Y-67147000D01*
X176047000Y-67167000D01*
X175793000Y-67167000D01*
X175793000Y-67147000D01*
X174599845Y-67147000D01*
X174478524Y-67376890D01*
X174523175Y-67524099D01*
X174648359Y-67786920D01*
X174822412Y-68020269D01*
X175038645Y-68215178D01*
X175155534Y-68284805D01*
X174973368Y-68406525D01*
X174766525Y-68613368D01*
X174604010Y-68856589D01*
X174492068Y-69126842D01*
X174435000Y-69413740D01*
X174435000Y-69706260D01*
X174492068Y-69993158D01*
X174604010Y-70263411D01*
X174766525Y-70506632D01*
X174973368Y-70713475D01*
X175147760Y-70830000D01*
X174973368Y-70946525D01*
X174766525Y-71153368D01*
X174604010Y-71396589D01*
X174492068Y-71666842D01*
X174435000Y-71953740D01*
X174435000Y-72246260D01*
X174492068Y-72533158D01*
X174604010Y-72803411D01*
X174766525Y-73046632D01*
X174973368Y-73253475D01*
X175147760Y-73370000D01*
X174973368Y-73486525D01*
X174766525Y-73693368D01*
X174604010Y-73936589D01*
X174492068Y-74206842D01*
X174435000Y-74493740D01*
X174435000Y-74786260D01*
X174475440Y-74989566D01*
X174351939Y-74965000D01*
X174148061Y-74965000D01*
X173948102Y-75004774D01*
X173759744Y-75082795D01*
X173590226Y-75196063D01*
X173446063Y-75340226D01*
X173332795Y-75509744D01*
X173254774Y-75698102D01*
X173215000Y-75898061D01*
X173215000Y-76101939D01*
X173254774Y-76301898D01*
X173332795Y-76490256D01*
X173444203Y-76656991D01*
X173435845Y-76662576D01*
X173312576Y-76785845D01*
X173215723Y-76930795D01*
X173149010Y-77091855D01*
X173115000Y-77262835D01*
X173115000Y-77437165D01*
X173149010Y-77608145D01*
X173215723Y-77769205D01*
X173312576Y-77914155D01*
X173435845Y-78037424D01*
X173580795Y-78134277D01*
X173679109Y-78175000D01*
X173580795Y-78215723D01*
X173435845Y-78312576D01*
X173312576Y-78435845D01*
X173215723Y-78580795D01*
X173149010Y-78741855D01*
X173115000Y-78912835D01*
X173115000Y-79087165D01*
X173149010Y-79258145D01*
X173215723Y-79419205D01*
X173312576Y-79564155D01*
X173435845Y-79687424D01*
X173580795Y-79784277D01*
X173741855Y-79850990D01*
X173912835Y-79885000D01*
X174087165Y-79885000D01*
X174258145Y-79850990D01*
X174419205Y-79784277D01*
X174435000Y-79773723D01*
X174435000Y-79866260D01*
X174492068Y-80153158D01*
X174604010Y-80423411D01*
X174766525Y-80666632D01*
X174973368Y-80873475D01*
X175147760Y-80990000D01*
X174973368Y-81106525D01*
X174766525Y-81313368D01*
X174604010Y-81556589D01*
X174492068Y-81826842D01*
X174435000Y-82113740D01*
X174435000Y-82406260D01*
X174492068Y-82693158D01*
X174604010Y-82963411D01*
X174766525Y-83206632D01*
X174973368Y-83413475D01*
X175147760Y-83530000D01*
X174973368Y-83646525D01*
X174766525Y-83853368D01*
X174604010Y-84096589D01*
X174492068Y-84366842D01*
X174435000Y-84653740D01*
X174435000Y-84946260D01*
X174492068Y-85233158D01*
X174604010Y-85503411D01*
X174766525Y-85746632D01*
X174973368Y-85953475D01*
X175147760Y-86070000D01*
X174973368Y-86186525D01*
X174766525Y-86393368D01*
X174604010Y-86636589D01*
X174492068Y-86906842D01*
X174435000Y-87193740D01*
X174435000Y-87486260D01*
X174492068Y-87773158D01*
X174604010Y-88043411D01*
X174766525Y-88286632D01*
X174973368Y-88493475D01*
X175147760Y-88610000D01*
X174973368Y-88726525D01*
X174766525Y-88933368D01*
X174604010Y-89176589D01*
X174492068Y-89446842D01*
X174435000Y-89733740D01*
X174435000Y-90026260D01*
X174492068Y-90313158D01*
X174604010Y-90583411D01*
X174766525Y-90826632D01*
X174973368Y-91033475D01*
X175147760Y-91150000D01*
X174973368Y-91266525D01*
X174766525Y-91473368D01*
X174604010Y-91716589D01*
X174492068Y-91986842D01*
X174435000Y-92273740D01*
X174435000Y-92566260D01*
X174492068Y-92853158D01*
X174604010Y-93123411D01*
X174755412Y-93350000D01*
X156931315Y-93350000D01*
X157055990Y-93163411D01*
X157167932Y-92893158D01*
X157225000Y-92606260D01*
X157225000Y-92313740D01*
X157167932Y-92026842D01*
X157055990Y-91756589D01*
X156893475Y-91513368D01*
X156686632Y-91306525D01*
X156512240Y-91190000D01*
X156686632Y-91073475D01*
X156893475Y-90866632D01*
X157055990Y-90623411D01*
X157167932Y-90353158D01*
X157225000Y-90066260D01*
X157225000Y-89773740D01*
X157167932Y-89486842D01*
X157055990Y-89216589D01*
X156893475Y-88973368D01*
X156686632Y-88766525D01*
X156512240Y-88650000D01*
X156686632Y-88533475D01*
X156893475Y-88326632D01*
X157055990Y-88083411D01*
X157167932Y-87813158D01*
X157225000Y-87526260D01*
X157225000Y-87233740D01*
X157167932Y-86946842D01*
X157055990Y-86676589D01*
X156893475Y-86433368D01*
X156686632Y-86226525D01*
X156512240Y-86110000D01*
X156686632Y-85993475D01*
X156893475Y-85786632D01*
X157055990Y-85543411D01*
X157167932Y-85273158D01*
X157179931Y-85212835D01*
X157215000Y-85212835D01*
X157215000Y-85387165D01*
X157249010Y-85558145D01*
X157315723Y-85719205D01*
X157412576Y-85864155D01*
X157535845Y-85987424D01*
X157680795Y-86084277D01*
X157841855Y-86150990D01*
X158012835Y-86185000D01*
X158187165Y-86185000D01*
X158358145Y-86150990D01*
X158519205Y-86084277D01*
X158664155Y-85987424D01*
X158787424Y-85864155D01*
X158884277Y-85719205D01*
X158950990Y-85558145D01*
X158985000Y-85387165D01*
X158985000Y-85212835D01*
X158950990Y-85041855D01*
X158884277Y-84880795D01*
X158787424Y-84735845D01*
X158664155Y-84612576D01*
X158519205Y-84515723D01*
X158358145Y-84449010D01*
X158187165Y-84415000D01*
X158012835Y-84415000D01*
X157841855Y-84449010D01*
X157680795Y-84515723D01*
X157535845Y-84612576D01*
X157412576Y-84735845D01*
X157315723Y-84880795D01*
X157249010Y-85041855D01*
X157215000Y-85212835D01*
X157179931Y-85212835D01*
X157225000Y-84986260D01*
X157225000Y-84693740D01*
X157167932Y-84406842D01*
X157055990Y-84136589D01*
X156893475Y-83893368D01*
X156686632Y-83686525D01*
X156512240Y-83570000D01*
X156686632Y-83453475D01*
X156893475Y-83246632D01*
X157055990Y-83003411D01*
X157167932Y-82733158D01*
X157225000Y-82446260D01*
X157225000Y-82153740D01*
X157167932Y-81866842D01*
X157095857Y-81692835D01*
X159295002Y-81692835D01*
X159295002Y-81867165D01*
X159329012Y-82038145D01*
X159395725Y-82199205D01*
X159492578Y-82344155D01*
X159615847Y-82467424D01*
X159760797Y-82564277D01*
X159921857Y-82630990D01*
X160092837Y-82665000D01*
X160126746Y-82665000D01*
X160105891Y-82685855D01*
X160009038Y-82830805D01*
X159942325Y-82991865D01*
X159908315Y-83162845D01*
X159908315Y-83337175D01*
X159909079Y-83341016D01*
X159835729Y-83450791D01*
X159769016Y-83611851D01*
X159735006Y-83782831D01*
X159735006Y-83957161D01*
X159769016Y-84128141D01*
X159835729Y-84289201D01*
X159877236Y-84351320D01*
X159865000Y-84412835D01*
X159865000Y-84587165D01*
X159899010Y-84758145D01*
X159965723Y-84919205D01*
X160062576Y-85064155D01*
X160185845Y-85187424D01*
X160330795Y-85284277D01*
X160491855Y-85350990D01*
X160622198Y-85376917D01*
X160583527Y-85470276D01*
X160549517Y-85641256D01*
X160549517Y-85815586D01*
X160583527Y-85986566D01*
X160650240Y-86147626D01*
X160747093Y-86292576D01*
X160865390Y-86410873D01*
X160865000Y-86412835D01*
X160865000Y-86587165D01*
X160899010Y-86758145D01*
X160965723Y-86919205D01*
X161062576Y-87064155D01*
X161185845Y-87187424D01*
X161330795Y-87284277D01*
X161491855Y-87350990D01*
X161662835Y-87385000D01*
X161837165Y-87385000D01*
X162008145Y-87350990D01*
X162117975Y-87305497D01*
X162269776Y-87368375D01*
X162440756Y-87402385D01*
X162615086Y-87402385D01*
X162733183Y-87378894D01*
X162866190Y-87433987D01*
X163037170Y-87467997D01*
X163211500Y-87467997D01*
X163382480Y-87433987D01*
X163543540Y-87367274D01*
X163630284Y-87309313D01*
X163600618Y-87458453D01*
X163600618Y-87632783D01*
X163634628Y-87803763D01*
X163701341Y-87964823D01*
X163798194Y-88109773D01*
X163921463Y-88233042D01*
X164066413Y-88329895D01*
X164227473Y-88396608D01*
X164398453Y-88430618D01*
X164572783Y-88430618D01*
X164743763Y-88396608D01*
X164904823Y-88329895D01*
X165049773Y-88233042D01*
X165112886Y-88169929D01*
X165145723Y-88249205D01*
X165242576Y-88394155D01*
X165365845Y-88517424D01*
X165510795Y-88614277D01*
X165671855Y-88680990D01*
X165842835Y-88715000D01*
X166017165Y-88715000D01*
X166188145Y-88680990D01*
X166349205Y-88614277D01*
X166494155Y-88517424D01*
X166617424Y-88394155D01*
X166714277Y-88249205D01*
X166780990Y-88088145D01*
X166815000Y-87917165D01*
X166815000Y-87742835D01*
X166804015Y-87687609D01*
X166864155Y-87647424D01*
X166987424Y-87524155D01*
X167084277Y-87379205D01*
X167121738Y-87288765D01*
X167172826Y-87412102D01*
X167269679Y-87557052D01*
X167392948Y-87680321D01*
X167537898Y-87777174D01*
X167698958Y-87843887D01*
X167869938Y-87877897D01*
X168044268Y-87877897D01*
X168215248Y-87843887D01*
X168376308Y-87777174D01*
X168521258Y-87680321D01*
X168644527Y-87557052D01*
X168741380Y-87412102D01*
X168808093Y-87251042D01*
X168842103Y-87080062D01*
X168842103Y-86905732D01*
X168808093Y-86734752D01*
X168741380Y-86573692D01*
X168644527Y-86428742D01*
X168521258Y-86305473D01*
X168376308Y-86208620D01*
X168215248Y-86141907D01*
X168044268Y-86107897D01*
X167869938Y-86107897D01*
X167698958Y-86141907D01*
X167537898Y-86208620D01*
X167392948Y-86305473D01*
X167269679Y-86428742D01*
X167172826Y-86573692D01*
X167135365Y-86664132D01*
X167084277Y-86540795D01*
X166987424Y-86395845D01*
X166864155Y-86272576D01*
X166719205Y-86175723D01*
X166558145Y-86109010D01*
X166387165Y-86075000D01*
X166212835Y-86075000D01*
X166041855Y-86109010D01*
X165880795Y-86175723D01*
X165848226Y-86197485D01*
X165848226Y-86135792D01*
X165814216Y-85964812D01*
X165747503Y-85803752D01*
X165650650Y-85658802D01*
X165527381Y-85535533D01*
X165382431Y-85438680D01*
X165221371Y-85371967D01*
X165050391Y-85337957D01*
X164876061Y-85337957D01*
X164705081Y-85371967D01*
X164672276Y-85385555D01*
X164603121Y-85356910D01*
X164432141Y-85322900D01*
X164257811Y-85322900D01*
X164086831Y-85356910D01*
X163925771Y-85423623D01*
X163855067Y-85470866D01*
X163758622Y-85451682D01*
X163584292Y-85451682D01*
X163413312Y-85485692D01*
X163252252Y-85552405D01*
X163107302Y-85649258D01*
X163058563Y-85697997D01*
X163037170Y-85697997D01*
X162919073Y-85721488D01*
X162786066Y-85666395D01*
X162615086Y-85632385D01*
X162440756Y-85632385D01*
X162319517Y-85656501D01*
X162319517Y-85641256D01*
X162285507Y-85470276D01*
X162218794Y-85309216D01*
X162121941Y-85164266D01*
X161998672Y-85040997D01*
X161853722Y-84944144D01*
X161692662Y-84877431D01*
X161562319Y-84851504D01*
X161600990Y-84758145D01*
X161635000Y-84587165D01*
X161635000Y-84412835D01*
X161600990Y-84241855D01*
X161534277Y-84080795D01*
X161492770Y-84018676D01*
X161505006Y-83957161D01*
X161505006Y-83912835D01*
X169115000Y-83912835D01*
X169115000Y-84087165D01*
X169149010Y-84258145D01*
X169215723Y-84419205D01*
X169312576Y-84564155D01*
X169435845Y-84687424D01*
X169580795Y-84784277D01*
X169741855Y-84850990D01*
X169912835Y-84885000D01*
X170087165Y-84885000D01*
X170258145Y-84850990D01*
X170419205Y-84784277D01*
X170564155Y-84687424D01*
X170687424Y-84564155D01*
X170784277Y-84419205D01*
X170850990Y-84258145D01*
X170885000Y-84087165D01*
X170885000Y-83912835D01*
X170850990Y-83741855D01*
X170784277Y-83580795D01*
X170687424Y-83435845D01*
X170564155Y-83312576D01*
X170419205Y-83215723D01*
X170258145Y-83149010D01*
X170087165Y-83115000D01*
X169912835Y-83115000D01*
X169741855Y-83149010D01*
X169580795Y-83215723D01*
X169435845Y-83312576D01*
X169312576Y-83435845D01*
X169215723Y-83580795D01*
X169149010Y-83741855D01*
X169115000Y-83912835D01*
X161505006Y-83912835D01*
X161505006Y-83782831D01*
X161504242Y-83778990D01*
X161577592Y-83669215D01*
X161644305Y-83508155D01*
X161678315Y-83337175D01*
X161678315Y-83162845D01*
X161644305Y-82991865D01*
X161577592Y-82830805D01*
X161480739Y-82685855D01*
X161357470Y-82562586D01*
X161212520Y-82465733D01*
X161051460Y-82399020D01*
X160880480Y-82365010D01*
X160846571Y-82365010D01*
X160867426Y-82344155D01*
X160964279Y-82199205D01*
X161030992Y-82038145D01*
X161041620Y-81984715D01*
X161086486Y-81966131D01*
X161231436Y-81869278D01*
X161354705Y-81746009D01*
X161451558Y-81601059D01*
X161518271Y-81439999D01*
X161552281Y-81269019D01*
X161552281Y-81094689D01*
X161518271Y-80923709D01*
X161451558Y-80762649D01*
X161354705Y-80617699D01*
X161231436Y-80494430D01*
X161086486Y-80397577D01*
X160994000Y-80359268D01*
X160984277Y-80335795D01*
X160887424Y-80190845D01*
X160764155Y-80067576D01*
X160619205Y-79970723D01*
X160458145Y-79904010D01*
X160287165Y-79870000D01*
X160112835Y-79870000D01*
X159941855Y-79904010D01*
X159780795Y-79970723D01*
X159635845Y-80067576D01*
X159512576Y-80190845D01*
X159415723Y-80335795D01*
X159349010Y-80496855D01*
X159315000Y-80667835D01*
X159315000Y-80842165D01*
X159349010Y-81013145D01*
X159415723Y-81174205D01*
X159468062Y-81252536D01*
X159395725Y-81360795D01*
X159329012Y-81521855D01*
X159295002Y-81692835D01*
X157095857Y-81692835D01*
X157055990Y-81596589D01*
X156893475Y-81353368D01*
X156686632Y-81146525D01*
X156512240Y-81030000D01*
X156686632Y-80913475D01*
X156893475Y-80706632D01*
X157055990Y-80463411D01*
X157167932Y-80193158D01*
X157225000Y-79906260D01*
X157225000Y-79613740D01*
X157167932Y-79326842D01*
X157055990Y-79056589D01*
X156893475Y-78813368D01*
X156742942Y-78662835D01*
X167615000Y-78662835D01*
X167615000Y-78837165D01*
X167649010Y-79008145D01*
X167715723Y-79169205D01*
X167812576Y-79314155D01*
X167935845Y-79437424D01*
X168080795Y-79534277D01*
X168241855Y-79600990D01*
X168412835Y-79635000D01*
X168587165Y-79635000D01*
X168758145Y-79600990D01*
X168919205Y-79534277D01*
X169064155Y-79437424D01*
X169187424Y-79314155D01*
X169284277Y-79169205D01*
X169350990Y-79008145D01*
X169385000Y-78837165D01*
X169385000Y-78748061D01*
X169485000Y-78748061D01*
X169485000Y-78951939D01*
X169524774Y-79151898D01*
X169602795Y-79340256D01*
X169716063Y-79509774D01*
X169860226Y-79653937D01*
X170029744Y-79767205D01*
X170218102Y-79845226D01*
X170418061Y-79885000D01*
X170621939Y-79885000D01*
X170821898Y-79845226D01*
X170942454Y-79795290D01*
X170952795Y-79820256D01*
X171066063Y-79989774D01*
X171210226Y-80133937D01*
X171379744Y-80247205D01*
X171568102Y-80325226D01*
X171768061Y-80365000D01*
X171971939Y-80365000D01*
X172171898Y-80325226D01*
X172360256Y-80247205D01*
X172529774Y-80133937D01*
X172673937Y-79989774D01*
X172787205Y-79820256D01*
X172865226Y-79631898D01*
X172905000Y-79431939D01*
X172905000Y-79228061D01*
X172865226Y-79028102D01*
X172787205Y-78839744D01*
X172673937Y-78670226D01*
X172529774Y-78526063D01*
X172360256Y-78412795D01*
X172171898Y-78334774D01*
X171971939Y-78295000D01*
X171768061Y-78295000D01*
X171568102Y-78334774D01*
X171447546Y-78384710D01*
X171437205Y-78359744D01*
X171323937Y-78190226D01*
X171179774Y-78046063D01*
X171010256Y-77932795D01*
X170821898Y-77854774D01*
X170621939Y-77815000D01*
X170418061Y-77815000D01*
X170218102Y-77854774D01*
X170029744Y-77932795D01*
X169860226Y-78046063D01*
X169716063Y-78190226D01*
X169602795Y-78359744D01*
X169524774Y-78548102D01*
X169485000Y-78748061D01*
X169385000Y-78748061D01*
X169385000Y-78662835D01*
X169350990Y-78491855D01*
X169284277Y-78330795D01*
X169187424Y-78185845D01*
X169064155Y-78062576D01*
X168919205Y-77965723D01*
X168758145Y-77899010D01*
X168587165Y-77865000D01*
X168412835Y-77865000D01*
X168241855Y-77899010D01*
X168080795Y-77965723D01*
X167935845Y-78062576D01*
X167812576Y-78185845D01*
X167715723Y-78330795D01*
X167649010Y-78491855D01*
X167615000Y-78662835D01*
X156742942Y-78662835D01*
X156686632Y-78606525D01*
X156512240Y-78490000D01*
X156686632Y-78373475D01*
X156893475Y-78166632D01*
X157055990Y-77923411D01*
X157167932Y-77653158D01*
X157225000Y-77366260D01*
X157225000Y-77162835D01*
X160365000Y-77162835D01*
X160365000Y-77337165D01*
X160399010Y-77508145D01*
X160465723Y-77669205D01*
X160562576Y-77814155D01*
X160685845Y-77937424D01*
X160830795Y-78034277D01*
X160991855Y-78100990D01*
X161162835Y-78135000D01*
X161337165Y-78135000D01*
X161508145Y-78100990D01*
X161669205Y-78034277D01*
X161777053Y-77962215D01*
X161782930Y-77991759D01*
X161849643Y-78152819D01*
X161946496Y-78297769D01*
X162069765Y-78421038D01*
X162214715Y-78517891D01*
X162375775Y-78584604D01*
X162546755Y-78618614D01*
X162721085Y-78618614D01*
X162892065Y-78584604D01*
X162962517Y-78555422D01*
X162975311Y-78560721D01*
X163146291Y-78594731D01*
X163320621Y-78594731D01*
X163491601Y-78560721D01*
X163652661Y-78494008D01*
X163656737Y-78491284D01*
X163739978Y-78507842D01*
X163914308Y-78507842D01*
X164085288Y-78473832D01*
X164097797Y-78468651D01*
X164126951Y-78488131D01*
X164288011Y-78554844D01*
X164458991Y-78588854D01*
X164633321Y-78588854D01*
X164804301Y-78554844D01*
X164965361Y-78488131D01*
X165110311Y-78391278D01*
X165233580Y-78268009D01*
X165330433Y-78123059D01*
X165397146Y-77961999D01*
X165431156Y-77791019D01*
X165431156Y-77616689D01*
X165397146Y-77445709D01*
X165343302Y-77315717D01*
X165419205Y-77284277D01*
X165564155Y-77187424D01*
X165687424Y-77064155D01*
X165784277Y-76919205D01*
X165850990Y-76758145D01*
X165885000Y-76587165D01*
X165885000Y-76412835D01*
X165850990Y-76241855D01*
X165784277Y-76080795D01*
X165687424Y-75935845D01*
X165564155Y-75812576D01*
X165542432Y-75798061D01*
X166025000Y-75798061D01*
X166025000Y-76001939D01*
X166064774Y-76201898D01*
X166142795Y-76390256D01*
X166256063Y-76559774D01*
X166400226Y-76703937D01*
X166569744Y-76817205D01*
X166758102Y-76895226D01*
X166958061Y-76935000D01*
X167161939Y-76935000D01*
X167361898Y-76895226D01*
X167550256Y-76817205D01*
X167719774Y-76703937D01*
X167863937Y-76559774D01*
X167977205Y-76390256D01*
X168055226Y-76201898D01*
X168095000Y-76001939D01*
X168095000Y-75798061D01*
X168055226Y-75598102D01*
X167977205Y-75409744D01*
X167863937Y-75240226D01*
X167719774Y-75096063D01*
X167550256Y-74982795D01*
X167361898Y-74904774D01*
X167161939Y-74865000D01*
X166958061Y-74865000D01*
X166758102Y-74904774D01*
X166569744Y-74982795D01*
X166400226Y-75096063D01*
X166256063Y-75240226D01*
X166142795Y-75409744D01*
X166064774Y-75598102D01*
X166025000Y-75798061D01*
X165542432Y-75798061D01*
X165419205Y-75715723D01*
X165258145Y-75649010D01*
X165087165Y-75615000D01*
X164912835Y-75615000D01*
X164741855Y-75649010D01*
X164580795Y-75715723D01*
X164435845Y-75812576D01*
X164312576Y-75935845D01*
X164215723Y-76080795D01*
X164149010Y-76241855D01*
X164115000Y-76412835D01*
X164115000Y-76587165D01*
X164149010Y-76758145D01*
X164169061Y-76806552D01*
X164085288Y-76771852D01*
X163914308Y-76737842D01*
X163739978Y-76737842D01*
X163568998Y-76771852D01*
X163407938Y-76838565D01*
X163403862Y-76841289D01*
X163320621Y-76824731D01*
X163146291Y-76824731D01*
X162975311Y-76858741D01*
X162904859Y-76887923D01*
X162892065Y-76882624D01*
X162721085Y-76848614D01*
X162622226Y-76848614D01*
X162600990Y-76741855D01*
X162534277Y-76580795D01*
X162437424Y-76435845D01*
X162314155Y-76312576D01*
X162169205Y-76215723D01*
X162008145Y-76149010D01*
X161837165Y-76115000D01*
X161662835Y-76115000D01*
X161491855Y-76149010D01*
X161330795Y-76215723D01*
X161185845Y-76312576D01*
X161126117Y-76372304D01*
X160991855Y-76399010D01*
X160830795Y-76465723D01*
X160685845Y-76562576D01*
X160562576Y-76685845D01*
X160465723Y-76830795D01*
X160399010Y-76991855D01*
X160365000Y-77162835D01*
X157225000Y-77162835D01*
X157225000Y-77073740D01*
X157167932Y-76786842D01*
X157055990Y-76516589D01*
X156893475Y-76273368D01*
X156686632Y-76066525D01*
X156512240Y-75950000D01*
X156686632Y-75833475D01*
X156893475Y-75626632D01*
X157055990Y-75383411D01*
X157167932Y-75113158D01*
X157210046Y-74901436D01*
X157245506Y-74930537D01*
X157355820Y-74989502D01*
X157475518Y-75025812D01*
X157600000Y-75038072D01*
X158164250Y-75035000D01*
X158323000Y-74876250D01*
X158323000Y-73677000D01*
X157123750Y-73677000D01*
X156965000Y-73835750D01*
X156964975Y-73840375D01*
X156893475Y-73733368D01*
X156686632Y-73526525D01*
X156512240Y-73410000D01*
X156686632Y-73293475D01*
X156893475Y-73086632D01*
X156963463Y-72981888D01*
X156965000Y-73264250D01*
X157123750Y-73423000D01*
X158323000Y-73423000D01*
X158323000Y-72223750D01*
X158577000Y-72223750D01*
X158577000Y-73423000D01*
X158597000Y-73423000D01*
X158597000Y-73677000D01*
X158577000Y-73677000D01*
X158577000Y-74876250D01*
X158735750Y-75035000D01*
X159300000Y-75038072D01*
X159424482Y-75025812D01*
X159544180Y-74989502D01*
X159654494Y-74930537D01*
X159751185Y-74851185D01*
X159830537Y-74754494D01*
X159889502Y-74644180D01*
X159911513Y-74571620D01*
X160043368Y-74703475D01*
X160286589Y-74865990D01*
X160556842Y-74977932D01*
X160843740Y-75035000D01*
X161136260Y-75035000D01*
X161423158Y-74977932D01*
X161693411Y-74865990D01*
X161936632Y-74703475D01*
X162143475Y-74496632D01*
X162260000Y-74322240D01*
X162376525Y-74496632D01*
X162583368Y-74703475D01*
X162826589Y-74865990D01*
X163096842Y-74977932D01*
X163383740Y-75035000D01*
X163676260Y-75035000D01*
X163963158Y-74977932D01*
X164233411Y-74865990D01*
X164476632Y-74703475D01*
X164683475Y-74496632D01*
X164845990Y-74253411D01*
X164957932Y-73983158D01*
X165015000Y-73696260D01*
X165015000Y-73403740D01*
X164957932Y-73116842D01*
X164845990Y-72846589D01*
X164683475Y-72603368D01*
X164592942Y-72512835D01*
X164915000Y-72512835D01*
X164915000Y-72687165D01*
X164949010Y-72858145D01*
X165015723Y-73019205D01*
X165112576Y-73164155D01*
X165235845Y-73287424D01*
X165380795Y-73384277D01*
X165541855Y-73450990D01*
X165712835Y-73485000D01*
X165887165Y-73485000D01*
X166058145Y-73450990D01*
X166219205Y-73384277D01*
X166364155Y-73287424D01*
X166487424Y-73164155D01*
X166584277Y-73019205D01*
X166650990Y-72858145D01*
X166685000Y-72687165D01*
X166685000Y-72512835D01*
X166650990Y-72341855D01*
X166584277Y-72180795D01*
X166487424Y-72035845D01*
X166364155Y-71912576D01*
X166219205Y-71815723D01*
X166058145Y-71749010D01*
X165887165Y-71715000D01*
X165712835Y-71715000D01*
X165541855Y-71749010D01*
X165380795Y-71815723D01*
X165235845Y-71912576D01*
X165112576Y-72035845D01*
X165015723Y-72180795D01*
X164949010Y-72341855D01*
X164915000Y-72512835D01*
X164592942Y-72512835D01*
X164476632Y-72396525D01*
X164233411Y-72234010D01*
X163963158Y-72122068D01*
X163676260Y-72065000D01*
X163383740Y-72065000D01*
X163096842Y-72122068D01*
X162826589Y-72234010D01*
X162583368Y-72396525D01*
X162376525Y-72603368D01*
X162260000Y-72777760D01*
X162143475Y-72603368D01*
X161936632Y-72396525D01*
X161693411Y-72234010D01*
X161423158Y-72122068D01*
X161136260Y-72065000D01*
X160843740Y-72065000D01*
X160556842Y-72122068D01*
X160511370Y-72140903D01*
X160559277Y-72069205D01*
X160625990Y-71908145D01*
X160660000Y-71737165D01*
X160660000Y-71562835D01*
X160625990Y-71391855D01*
X160559277Y-71230795D01*
X160462424Y-71085845D01*
X160339155Y-70962576D01*
X160194205Y-70865723D01*
X160033145Y-70799010D01*
X159862165Y-70765000D01*
X159687835Y-70765000D01*
X159516855Y-70799010D01*
X159355795Y-70865723D01*
X159210845Y-70962576D01*
X159087576Y-71085845D01*
X158990723Y-71230795D01*
X158924010Y-71391855D01*
X158890000Y-71562835D01*
X158890000Y-71737165D01*
X158924010Y-71908145D01*
X158988411Y-72063624D01*
X158735750Y-72065000D01*
X158577000Y-72223750D01*
X158323000Y-72223750D01*
X158164250Y-72065000D01*
X157600000Y-72061928D01*
X157475518Y-72074188D01*
X157355820Y-72110498D01*
X157245506Y-72169463D01*
X157225000Y-72186292D01*
X157225000Y-71993740D01*
X157167932Y-71706842D01*
X157055990Y-71436589D01*
X156893475Y-71193368D01*
X156686632Y-70986525D01*
X156512240Y-70870000D01*
X156686632Y-70753475D01*
X156893475Y-70546632D01*
X157055990Y-70303411D01*
X157167932Y-70033158D01*
X157225000Y-69746260D01*
X157225000Y-69453740D01*
X157167932Y-69166842D01*
X157055990Y-68896589D01*
X156893475Y-68653368D01*
X156751468Y-68511361D01*
X160291000Y-68511361D01*
X160291000Y-69788638D01*
X160308566Y-69966985D01*
X160377983Y-70195825D01*
X160490712Y-70406725D01*
X160642419Y-70591581D01*
X160827274Y-70743288D01*
X161038174Y-70856017D01*
X161267014Y-70925434D01*
X161505000Y-70948874D01*
X161742985Y-70925434D01*
X161971825Y-70856017D01*
X162182725Y-70743288D01*
X162367581Y-70591581D01*
X162519288Y-70406726D01*
X162632017Y-70195826D01*
X162701434Y-69966986D01*
X162719000Y-69788639D01*
X162719000Y-69425000D01*
X162983647Y-69425000D01*
X163012477Y-69422160D01*
X163014280Y-69422173D01*
X163023799Y-69421240D01*
X163053267Y-69418143D01*
X163084283Y-69415088D01*
X163085702Y-69414658D01*
X163145777Y-69402326D01*
X163206743Y-69390696D01*
X163215900Y-69387932D01*
X163274626Y-69369753D01*
X163331860Y-69345694D01*
X163389421Y-69322438D01*
X163397866Y-69317948D01*
X163451945Y-69288708D01*
X163503416Y-69253991D01*
X163555369Y-69219994D01*
X163562781Y-69213949D01*
X163610150Y-69174762D01*
X163653904Y-69130701D01*
X163698260Y-69087264D01*
X163704357Y-69079894D01*
X163743211Y-69032253D01*
X163777558Y-68980555D01*
X163812639Y-68929321D01*
X163817188Y-68920908D01*
X163846050Y-68866628D01*
X163869704Y-68809239D01*
X163894167Y-68752163D01*
X163896995Y-68743026D01*
X163914764Y-68684173D01*
X163926819Y-68623290D01*
X163939732Y-68562539D01*
X163940732Y-68553027D01*
X163946731Y-68491843D01*
X163946731Y-68461868D01*
X163949963Y-68432072D01*
X163949995Y-68422508D01*
X163949987Y-68420309D01*
X163946964Y-68390593D01*
X163947173Y-68360720D01*
X163946240Y-68351201D01*
X163944163Y-68331433D01*
X167875000Y-68331433D01*
X167875000Y-68518567D01*
X167911508Y-68702105D01*
X167983121Y-68874994D01*
X168087087Y-69030590D01*
X168219410Y-69162913D01*
X168375006Y-69266879D01*
X168547895Y-69338492D01*
X168731433Y-69375000D01*
X168918567Y-69375000D01*
X168931000Y-69372527D01*
X168931000Y-69788638D01*
X168948566Y-69966985D01*
X169017983Y-70195825D01*
X169130712Y-70406725D01*
X169282419Y-70591581D01*
X169467274Y-70743288D01*
X169678174Y-70856017D01*
X169907014Y-70925434D01*
X170145000Y-70948874D01*
X170382985Y-70925434D01*
X170611825Y-70856017D01*
X170822725Y-70743288D01*
X171007581Y-70591581D01*
X171159288Y-70406726D01*
X171240000Y-70255725D01*
X171240000Y-70287165D01*
X171274010Y-70458145D01*
X171340723Y-70619205D01*
X171437576Y-70764155D01*
X171560845Y-70887424D01*
X171705795Y-70984277D01*
X171866855Y-71050990D01*
X172037835Y-71085000D01*
X172212165Y-71085000D01*
X172383145Y-71050990D01*
X172544205Y-70984277D01*
X172689155Y-70887424D01*
X172812424Y-70764155D01*
X172909277Y-70619205D01*
X172975990Y-70458145D01*
X173010000Y-70287165D01*
X173010000Y-70112835D01*
X172975990Y-69941855D01*
X172909277Y-69780795D01*
X172812424Y-69635845D01*
X172689155Y-69512576D01*
X172544205Y-69415723D01*
X172383145Y-69349010D01*
X172212165Y-69315000D01*
X172037835Y-69315000D01*
X171866855Y-69349010D01*
X171705795Y-69415723D01*
X171560845Y-69512576D01*
X171437576Y-69635845D01*
X171359000Y-69753442D01*
X171359000Y-68511361D01*
X171341434Y-68333014D01*
X171272017Y-68104174D01*
X171159288Y-67893274D01*
X171007581Y-67708419D01*
X170822726Y-67556712D01*
X170611826Y-67443983D01*
X170382986Y-67374566D01*
X170145000Y-67351126D01*
X169907015Y-67374566D01*
X169678175Y-67443983D01*
X169467275Y-67556712D01*
X169363244Y-67642088D01*
X169274994Y-67583121D01*
X169102105Y-67511508D01*
X168918567Y-67475000D01*
X168731433Y-67475000D01*
X168547895Y-67511508D01*
X168375006Y-67583121D01*
X168219410Y-67687087D01*
X168087087Y-67819410D01*
X167983121Y-67975006D01*
X167911508Y-68147895D01*
X167875000Y-68331433D01*
X163944163Y-68331433D01*
X163939814Y-68290060D01*
X163927329Y-68229236D01*
X163915696Y-68168256D01*
X163912932Y-68159100D01*
X163894753Y-68100373D01*
X163870678Y-68043102D01*
X163847438Y-67985579D01*
X163842948Y-67977134D01*
X163813708Y-67923055D01*
X163778973Y-67871558D01*
X163744993Y-67819631D01*
X163738949Y-67812219D01*
X163699762Y-67764850D01*
X163655682Y-67721077D01*
X163612263Y-67676740D01*
X163604894Y-67670643D01*
X163557252Y-67631788D01*
X163505524Y-67597421D01*
X163454321Y-67562361D01*
X163445908Y-67557812D01*
X163391627Y-67528950D01*
X163334252Y-67505302D01*
X163277163Y-67480833D01*
X163268026Y-67478005D01*
X163209173Y-67460236D01*
X163148282Y-67448179D01*
X163087538Y-67435268D01*
X163084353Y-67434933D01*
X163084283Y-67434912D01*
X163082204Y-67434707D01*
X163078026Y-67434268D01*
X163016843Y-67428269D01*
X163016837Y-67428269D01*
X162983647Y-67425000D01*
X162666353Y-67425000D01*
X162637523Y-67427840D01*
X162635720Y-67427827D01*
X162626201Y-67428760D01*
X162596733Y-67431857D01*
X162565717Y-67434912D01*
X162564298Y-67435342D01*
X162504236Y-67447671D01*
X162443256Y-67459304D01*
X162434100Y-67462068D01*
X162375373Y-67480247D01*
X162318102Y-67504322D01*
X162260579Y-67527562D01*
X162252134Y-67532052D01*
X162198055Y-67561292D01*
X162192704Y-67564901D01*
X162182726Y-67556712D01*
X161971826Y-67443983D01*
X161742986Y-67374566D01*
X161505000Y-67351126D01*
X161267015Y-67374566D01*
X161038175Y-67443983D01*
X160827275Y-67556712D01*
X160642420Y-67708419D01*
X160490713Y-67893274D01*
X160377983Y-68104174D01*
X160308566Y-68333014D01*
X160291000Y-68511361D01*
X156751468Y-68511361D01*
X156686632Y-68446525D01*
X156504466Y-68324805D01*
X156621355Y-68255178D01*
X156837588Y-68060269D01*
X157011641Y-67826920D01*
X157136825Y-67564099D01*
X157181476Y-67416890D01*
X157060155Y-67187000D01*
X155867000Y-67187000D01*
X155867000Y-67207000D01*
X155613000Y-67207000D01*
X155613000Y-67187000D01*
X155593000Y-67187000D01*
X155593000Y-66933000D01*
X155613000Y-66933000D01*
X155613000Y-66913000D01*
X155867000Y-66913000D01*
X155867000Y-66933000D01*
X157060155Y-66933000D01*
X157181476Y-66703110D01*
X157136825Y-66555901D01*
X157011641Y-66293080D01*
X156837588Y-66059731D01*
X156753534Y-65983966D01*
X156834180Y-65959502D01*
X156944494Y-65900537D01*
X157041185Y-65821185D01*
X157120537Y-65724494D01*
X157179502Y-65614180D01*
X157215812Y-65494482D01*
X157228072Y-65370000D01*
X157228072Y-63670000D01*
X157215812Y-63545518D01*
X157179502Y-63425820D01*
X157120537Y-63315506D01*
X157041185Y-63218815D01*
X156980411Y-63168939D01*
X158380708Y-63168316D01*
X158323102Y-63179774D01*
X158134744Y-63257795D01*
X157965226Y-63371063D01*
X157821063Y-63515226D01*
X157707795Y-63684744D01*
X157629774Y-63873102D01*
X157590000Y-64073061D01*
X157590000Y-64276939D01*
X157629774Y-64476898D01*
X157707795Y-64665256D01*
X157821063Y-64834774D01*
X157965226Y-64978937D01*
X158134744Y-65092205D01*
X158323102Y-65170226D01*
X158523061Y-65210000D01*
X158726939Y-65210000D01*
X158926898Y-65170226D01*
X159115256Y-65092205D01*
X159284774Y-64978937D01*
X159428937Y-64834774D01*
X159542205Y-64665256D01*
X159542586Y-64664335D01*
X160270000Y-64664335D01*
X160270000Y-65985664D01*
X160287870Y-66167101D01*
X160358489Y-66399900D01*
X160473167Y-66614448D01*
X160627498Y-66802502D01*
X160815551Y-66956833D01*
X161030099Y-67071511D01*
X161262898Y-67142130D01*
X161505000Y-67165975D01*
X161747101Y-67142130D01*
X161979900Y-67071511D01*
X162194448Y-66956833D01*
X162382502Y-66802502D01*
X162536833Y-66614449D01*
X162651511Y-66399901D01*
X162722130Y-66167102D01*
X162740000Y-65985665D01*
X162740000Y-64664335D01*
X168910000Y-64664335D01*
X168910000Y-65985664D01*
X168927870Y-66167101D01*
X168998489Y-66399900D01*
X169113167Y-66614448D01*
X169267498Y-66802502D01*
X169455551Y-66956833D01*
X169670099Y-67071511D01*
X169902898Y-67142130D01*
X170145000Y-67165975D01*
X170387101Y-67142130D01*
X170619900Y-67071511D01*
X170834448Y-66956833D01*
X171022502Y-66802502D01*
X171176833Y-66614449D01*
X171291511Y-66399901D01*
X171362130Y-66167102D01*
X171380000Y-65985665D01*
X171380000Y-64664335D01*
X171362130Y-64482898D01*
X171291511Y-64250099D01*
X171176833Y-64035551D01*
X171022502Y-63847498D01*
X170834449Y-63693167D01*
X170619901Y-63578489D01*
X170387102Y-63507870D01*
X170145000Y-63484025D01*
X169902899Y-63507870D01*
X169670100Y-63578489D01*
X169455552Y-63693167D01*
X169267499Y-63847498D01*
X169113168Y-64035551D01*
X168998489Y-64250099D01*
X168927870Y-64482898D01*
X168910000Y-64664335D01*
X162740000Y-64664335D01*
X162722130Y-64482898D01*
X162651511Y-64250099D01*
X162536833Y-64035551D01*
X162382502Y-63847498D01*
X162194449Y-63693167D01*
X161979901Y-63578489D01*
X161747102Y-63507870D01*
X161505000Y-63484025D01*
X161262899Y-63507870D01*
X161030100Y-63578489D01*
X160815552Y-63693167D01*
X160627499Y-63847498D01*
X160473168Y-64035551D01*
X160358489Y-64250099D01*
X160287870Y-64482898D01*
X160270000Y-64664335D01*
X159542586Y-64664335D01*
X159620226Y-64476898D01*
X159660000Y-64276939D01*
X159660000Y-64073061D01*
X159620226Y-63873102D01*
X159542205Y-63684744D01*
X159428937Y-63515226D01*
X159284774Y-63371063D01*
X159115256Y-63257795D01*
X158926898Y-63179774D01*
X158868201Y-63168098D01*
X174640434Y-63161073D01*
X174618815Y-63178815D02*
X174640434Y-63161073D01*
%TA.AperFunction,Conductor*%
G36*
X174618815Y-63178815D02*
G01*
X174539463Y-63275506D01*
X174480498Y-63385820D01*
X174444188Y-63505518D01*
X174431928Y-63630000D01*
X174431928Y-65330000D01*
X174444188Y-65454482D01*
X174480498Y-65574180D01*
X174539463Y-65684494D01*
X174618815Y-65781185D01*
X174715506Y-65860537D01*
X174825820Y-65919502D01*
X174906466Y-65943966D01*
X174822412Y-66019731D01*
X174648359Y-66253080D01*
X174523175Y-66515901D01*
X174478524Y-66663110D01*
X174599845Y-66893000D01*
X175793000Y-66893000D01*
X175793000Y-66873000D01*
X176047000Y-66873000D01*
X176047000Y-66893000D01*
X176067000Y-66893000D01*
X176067000Y-67147000D01*
X176047000Y-67147000D01*
X176047000Y-67167000D01*
X175793000Y-67167000D01*
X175793000Y-67147000D01*
X174599845Y-67147000D01*
X174478524Y-67376890D01*
X174523175Y-67524099D01*
X174648359Y-67786920D01*
X174822412Y-68020269D01*
X175038645Y-68215178D01*
X175155534Y-68284805D01*
X174973368Y-68406525D01*
X174766525Y-68613368D01*
X174604010Y-68856589D01*
X174492068Y-69126842D01*
X174435000Y-69413740D01*
X174435000Y-69706260D01*
X174492068Y-69993158D01*
X174604010Y-70263411D01*
X174766525Y-70506632D01*
X174973368Y-70713475D01*
X175147760Y-70830000D01*
X174973368Y-70946525D01*
X174766525Y-71153368D01*
X174604010Y-71396589D01*
X174492068Y-71666842D01*
X174435000Y-71953740D01*
X174435000Y-72246260D01*
X174492068Y-72533158D01*
X174604010Y-72803411D01*
X174766525Y-73046632D01*
X174973368Y-73253475D01*
X175147760Y-73370000D01*
X174973368Y-73486525D01*
X174766525Y-73693368D01*
X174604010Y-73936589D01*
X174492068Y-74206842D01*
X174435000Y-74493740D01*
X174435000Y-74786260D01*
X174475440Y-74989566D01*
X174351939Y-74965000D01*
X174148061Y-74965000D01*
X173948102Y-75004774D01*
X173759744Y-75082795D01*
X173590226Y-75196063D01*
X173446063Y-75340226D01*
X173332795Y-75509744D01*
X173254774Y-75698102D01*
X173215000Y-75898061D01*
X173215000Y-76101939D01*
X173254774Y-76301898D01*
X173332795Y-76490256D01*
X173444203Y-76656991D01*
X173435845Y-76662576D01*
X173312576Y-76785845D01*
X173215723Y-76930795D01*
X173149010Y-77091855D01*
X173115000Y-77262835D01*
X173115000Y-77437165D01*
X173149010Y-77608145D01*
X173215723Y-77769205D01*
X173312576Y-77914155D01*
X173435845Y-78037424D01*
X173580795Y-78134277D01*
X173679109Y-78175000D01*
X173580795Y-78215723D01*
X173435845Y-78312576D01*
X173312576Y-78435845D01*
X173215723Y-78580795D01*
X173149010Y-78741855D01*
X173115000Y-78912835D01*
X173115000Y-79087165D01*
X173149010Y-79258145D01*
X173215723Y-79419205D01*
X173312576Y-79564155D01*
X173435845Y-79687424D01*
X173580795Y-79784277D01*
X173741855Y-79850990D01*
X173912835Y-79885000D01*
X174087165Y-79885000D01*
X174258145Y-79850990D01*
X174419205Y-79784277D01*
X174435000Y-79773723D01*
X174435000Y-79866260D01*
X174492068Y-80153158D01*
X174604010Y-80423411D01*
X174766525Y-80666632D01*
X174973368Y-80873475D01*
X175147760Y-80990000D01*
X174973368Y-81106525D01*
X174766525Y-81313368D01*
X174604010Y-81556589D01*
X174492068Y-81826842D01*
X174435000Y-82113740D01*
X174435000Y-82406260D01*
X174492068Y-82693158D01*
X174604010Y-82963411D01*
X174766525Y-83206632D01*
X174973368Y-83413475D01*
X175147760Y-83530000D01*
X174973368Y-83646525D01*
X174766525Y-83853368D01*
X174604010Y-84096589D01*
X174492068Y-84366842D01*
X174435000Y-84653740D01*
X174435000Y-84946260D01*
X174492068Y-85233158D01*
X174604010Y-85503411D01*
X174766525Y-85746632D01*
X174973368Y-85953475D01*
X175147760Y-86070000D01*
X174973368Y-86186525D01*
X174766525Y-86393368D01*
X174604010Y-86636589D01*
X174492068Y-86906842D01*
X174435000Y-87193740D01*
X174435000Y-87486260D01*
X174492068Y-87773158D01*
X174604010Y-88043411D01*
X174766525Y-88286632D01*
X174973368Y-88493475D01*
X175147760Y-88610000D01*
X174973368Y-88726525D01*
X174766525Y-88933368D01*
X174604010Y-89176589D01*
X174492068Y-89446842D01*
X174435000Y-89733740D01*
X174435000Y-90026260D01*
X174492068Y-90313158D01*
X174604010Y-90583411D01*
X174766525Y-90826632D01*
X174973368Y-91033475D01*
X175147760Y-91150000D01*
X174973368Y-91266525D01*
X174766525Y-91473368D01*
X174604010Y-91716589D01*
X174492068Y-91986842D01*
X174435000Y-92273740D01*
X174435000Y-92566260D01*
X174492068Y-92853158D01*
X174604010Y-93123411D01*
X174755412Y-93350000D01*
X156931315Y-93350000D01*
X157055990Y-93163411D01*
X157167932Y-92893158D01*
X157225000Y-92606260D01*
X157225000Y-92313740D01*
X157167932Y-92026842D01*
X157055990Y-91756589D01*
X156893475Y-91513368D01*
X156686632Y-91306525D01*
X156512240Y-91190000D01*
X156686632Y-91073475D01*
X156893475Y-90866632D01*
X157055990Y-90623411D01*
X157167932Y-90353158D01*
X157225000Y-90066260D01*
X157225000Y-89773740D01*
X157167932Y-89486842D01*
X157055990Y-89216589D01*
X156893475Y-88973368D01*
X156686632Y-88766525D01*
X156512240Y-88650000D01*
X156686632Y-88533475D01*
X156893475Y-88326632D01*
X157055990Y-88083411D01*
X157167932Y-87813158D01*
X157225000Y-87526260D01*
X157225000Y-87233740D01*
X157167932Y-86946842D01*
X157055990Y-86676589D01*
X156893475Y-86433368D01*
X156686632Y-86226525D01*
X156512240Y-86110000D01*
X156686632Y-85993475D01*
X156893475Y-85786632D01*
X157055990Y-85543411D01*
X157167932Y-85273158D01*
X157179931Y-85212835D01*
X157215000Y-85212835D01*
X157215000Y-85387165D01*
X157249010Y-85558145D01*
X157315723Y-85719205D01*
X157412576Y-85864155D01*
X157535845Y-85987424D01*
X157680795Y-86084277D01*
X157841855Y-86150990D01*
X158012835Y-86185000D01*
X158187165Y-86185000D01*
X158358145Y-86150990D01*
X158519205Y-86084277D01*
X158664155Y-85987424D01*
X158787424Y-85864155D01*
X158884277Y-85719205D01*
X158950990Y-85558145D01*
X158985000Y-85387165D01*
X158985000Y-85212835D01*
X158950990Y-85041855D01*
X158884277Y-84880795D01*
X158787424Y-84735845D01*
X158664155Y-84612576D01*
X158519205Y-84515723D01*
X158358145Y-84449010D01*
X158187165Y-84415000D01*
X158012835Y-84415000D01*
X157841855Y-84449010D01*
X157680795Y-84515723D01*
X157535845Y-84612576D01*
X157412576Y-84735845D01*
X157315723Y-84880795D01*
X157249010Y-85041855D01*
X157215000Y-85212835D01*
X157179931Y-85212835D01*
X157225000Y-84986260D01*
X157225000Y-84693740D01*
X157167932Y-84406842D01*
X157055990Y-84136589D01*
X156893475Y-83893368D01*
X156686632Y-83686525D01*
X156512240Y-83570000D01*
X156686632Y-83453475D01*
X156893475Y-83246632D01*
X157055990Y-83003411D01*
X157167932Y-82733158D01*
X157225000Y-82446260D01*
X157225000Y-82153740D01*
X157167932Y-81866842D01*
X157095857Y-81692835D01*
X159295002Y-81692835D01*
X159295002Y-81867165D01*
X159329012Y-82038145D01*
X159395725Y-82199205D01*
X159492578Y-82344155D01*
X159615847Y-82467424D01*
X159760797Y-82564277D01*
X159921857Y-82630990D01*
X160092837Y-82665000D01*
X160126746Y-82665000D01*
X160105891Y-82685855D01*
X160009038Y-82830805D01*
X159942325Y-82991865D01*
X159908315Y-83162845D01*
X159908315Y-83337175D01*
X159909079Y-83341016D01*
X159835729Y-83450791D01*
X159769016Y-83611851D01*
X159735006Y-83782831D01*
X159735006Y-83957161D01*
X159769016Y-84128141D01*
X159835729Y-84289201D01*
X159877236Y-84351320D01*
X159865000Y-84412835D01*
X159865000Y-84587165D01*
X159899010Y-84758145D01*
X159965723Y-84919205D01*
X160062576Y-85064155D01*
X160185845Y-85187424D01*
X160330795Y-85284277D01*
X160491855Y-85350990D01*
X160622198Y-85376917D01*
X160583527Y-85470276D01*
X160549517Y-85641256D01*
X160549517Y-85815586D01*
X160583527Y-85986566D01*
X160650240Y-86147626D01*
X160747093Y-86292576D01*
X160865390Y-86410873D01*
X160865000Y-86412835D01*
X160865000Y-86587165D01*
X160899010Y-86758145D01*
X160965723Y-86919205D01*
X161062576Y-87064155D01*
X161185845Y-87187424D01*
X161330795Y-87284277D01*
X161491855Y-87350990D01*
X161662835Y-87385000D01*
X161837165Y-87385000D01*
X162008145Y-87350990D01*
X162117975Y-87305497D01*
X162269776Y-87368375D01*
X162440756Y-87402385D01*
X162615086Y-87402385D01*
X162733183Y-87378894D01*
X162866190Y-87433987D01*
X163037170Y-87467997D01*
X163211500Y-87467997D01*
X163382480Y-87433987D01*
X163543540Y-87367274D01*
X163630284Y-87309313D01*
X163600618Y-87458453D01*
X163600618Y-87632783D01*
X163634628Y-87803763D01*
X163701341Y-87964823D01*
X163798194Y-88109773D01*
X163921463Y-88233042D01*
X164066413Y-88329895D01*
X164227473Y-88396608D01*
X164398453Y-88430618D01*
X164572783Y-88430618D01*
X164743763Y-88396608D01*
X164904823Y-88329895D01*
X165049773Y-88233042D01*
X165112886Y-88169929D01*
X165145723Y-88249205D01*
X165242576Y-88394155D01*
X165365845Y-88517424D01*
X165510795Y-88614277D01*
X165671855Y-88680990D01*
X165842835Y-88715000D01*
X166017165Y-88715000D01*
X166188145Y-88680990D01*
X166349205Y-88614277D01*
X166494155Y-88517424D01*
X166617424Y-88394155D01*
X166714277Y-88249205D01*
X166780990Y-88088145D01*
X166815000Y-87917165D01*
X166815000Y-87742835D01*
X166804015Y-87687609D01*
X166864155Y-87647424D01*
X166987424Y-87524155D01*
X167084277Y-87379205D01*
X167121738Y-87288765D01*
X167172826Y-87412102D01*
X167269679Y-87557052D01*
X167392948Y-87680321D01*
X167537898Y-87777174D01*
X167698958Y-87843887D01*
X167869938Y-87877897D01*
X168044268Y-87877897D01*
X168215248Y-87843887D01*
X168376308Y-87777174D01*
X168521258Y-87680321D01*
X168644527Y-87557052D01*
X168741380Y-87412102D01*
X168808093Y-87251042D01*
X168842103Y-87080062D01*
X168842103Y-86905732D01*
X168808093Y-86734752D01*
X168741380Y-86573692D01*
X168644527Y-86428742D01*
X168521258Y-86305473D01*
X168376308Y-86208620D01*
X168215248Y-86141907D01*
X168044268Y-86107897D01*
X167869938Y-86107897D01*
X167698958Y-86141907D01*
X167537898Y-86208620D01*
X167392948Y-86305473D01*
X167269679Y-86428742D01*
X167172826Y-86573692D01*
X167135365Y-86664132D01*
X167084277Y-86540795D01*
X166987424Y-86395845D01*
X166864155Y-86272576D01*
X166719205Y-86175723D01*
X166558145Y-86109010D01*
X166387165Y-86075000D01*
X166212835Y-86075000D01*
X166041855Y-86109010D01*
X165880795Y-86175723D01*
X165848226Y-86197485D01*
X165848226Y-86135792D01*
X165814216Y-85964812D01*
X165747503Y-85803752D01*
X165650650Y-85658802D01*
X165527381Y-85535533D01*
X165382431Y-85438680D01*
X165221371Y-85371967D01*
X165050391Y-85337957D01*
X164876061Y-85337957D01*
X164705081Y-85371967D01*
X164672276Y-85385555D01*
X164603121Y-85356910D01*
X164432141Y-85322900D01*
X164257811Y-85322900D01*
X164086831Y-85356910D01*
X163925771Y-85423623D01*
X163855067Y-85470866D01*
X163758622Y-85451682D01*
X163584292Y-85451682D01*
X163413312Y-85485692D01*
X163252252Y-85552405D01*
X163107302Y-85649258D01*
X163058563Y-85697997D01*
X163037170Y-85697997D01*
X162919073Y-85721488D01*
X162786066Y-85666395D01*
X162615086Y-85632385D01*
X162440756Y-85632385D01*
X162319517Y-85656501D01*
X162319517Y-85641256D01*
X162285507Y-85470276D01*
X162218794Y-85309216D01*
X162121941Y-85164266D01*
X161998672Y-85040997D01*
X161853722Y-84944144D01*
X161692662Y-84877431D01*
X161562319Y-84851504D01*
X161600990Y-84758145D01*
X161635000Y-84587165D01*
X161635000Y-84412835D01*
X161600990Y-84241855D01*
X161534277Y-84080795D01*
X161492770Y-84018676D01*
X161505006Y-83957161D01*
X161505006Y-83912835D01*
X169115000Y-83912835D01*
X169115000Y-84087165D01*
X169149010Y-84258145D01*
X169215723Y-84419205D01*
X169312576Y-84564155D01*
X169435845Y-84687424D01*
X169580795Y-84784277D01*
X169741855Y-84850990D01*
X169912835Y-84885000D01*
X170087165Y-84885000D01*
X170258145Y-84850990D01*
X170419205Y-84784277D01*
X170564155Y-84687424D01*
X170687424Y-84564155D01*
X170784277Y-84419205D01*
X170850990Y-84258145D01*
X170885000Y-84087165D01*
X170885000Y-83912835D01*
X170850990Y-83741855D01*
X170784277Y-83580795D01*
X170687424Y-83435845D01*
X170564155Y-83312576D01*
X170419205Y-83215723D01*
X170258145Y-83149010D01*
X170087165Y-83115000D01*
X169912835Y-83115000D01*
X169741855Y-83149010D01*
X169580795Y-83215723D01*
X169435845Y-83312576D01*
X169312576Y-83435845D01*
X169215723Y-83580795D01*
X169149010Y-83741855D01*
X169115000Y-83912835D01*
X161505006Y-83912835D01*
X161505006Y-83782831D01*
X161504242Y-83778990D01*
X161577592Y-83669215D01*
X161644305Y-83508155D01*
X161678315Y-83337175D01*
X161678315Y-83162845D01*
X161644305Y-82991865D01*
X161577592Y-82830805D01*
X161480739Y-82685855D01*
X161357470Y-82562586D01*
X161212520Y-82465733D01*
X161051460Y-82399020D01*
X160880480Y-82365010D01*
X160846571Y-82365010D01*
X160867426Y-82344155D01*
X160964279Y-82199205D01*
X161030992Y-82038145D01*
X161041620Y-81984715D01*
X161086486Y-81966131D01*
X161231436Y-81869278D01*
X161354705Y-81746009D01*
X161451558Y-81601059D01*
X161518271Y-81439999D01*
X161552281Y-81269019D01*
X161552281Y-81094689D01*
X161518271Y-80923709D01*
X161451558Y-80762649D01*
X161354705Y-80617699D01*
X161231436Y-80494430D01*
X161086486Y-80397577D01*
X160994000Y-80359268D01*
X160984277Y-80335795D01*
X160887424Y-80190845D01*
X160764155Y-80067576D01*
X160619205Y-79970723D01*
X160458145Y-79904010D01*
X160287165Y-79870000D01*
X160112835Y-79870000D01*
X159941855Y-79904010D01*
X159780795Y-79970723D01*
X159635845Y-80067576D01*
X159512576Y-80190845D01*
X159415723Y-80335795D01*
X159349010Y-80496855D01*
X159315000Y-80667835D01*
X159315000Y-80842165D01*
X159349010Y-81013145D01*
X159415723Y-81174205D01*
X159468062Y-81252536D01*
X159395725Y-81360795D01*
X159329012Y-81521855D01*
X159295002Y-81692835D01*
X157095857Y-81692835D01*
X157055990Y-81596589D01*
X156893475Y-81353368D01*
X156686632Y-81146525D01*
X156512240Y-81030000D01*
X156686632Y-80913475D01*
X156893475Y-80706632D01*
X157055990Y-80463411D01*
X157167932Y-80193158D01*
X157225000Y-79906260D01*
X157225000Y-79613740D01*
X157167932Y-79326842D01*
X157055990Y-79056589D01*
X156893475Y-78813368D01*
X156742942Y-78662835D01*
X167615000Y-78662835D01*
X167615000Y-78837165D01*
X167649010Y-79008145D01*
X167715723Y-79169205D01*
X167812576Y-79314155D01*
X167935845Y-79437424D01*
X168080795Y-79534277D01*
X168241855Y-79600990D01*
X168412835Y-79635000D01*
X168587165Y-79635000D01*
X168758145Y-79600990D01*
X168919205Y-79534277D01*
X169064155Y-79437424D01*
X169187424Y-79314155D01*
X169284277Y-79169205D01*
X169350990Y-79008145D01*
X169385000Y-78837165D01*
X169385000Y-78748061D01*
X169485000Y-78748061D01*
X169485000Y-78951939D01*
X169524774Y-79151898D01*
X169602795Y-79340256D01*
X169716063Y-79509774D01*
X169860226Y-79653937D01*
X170029744Y-79767205D01*
X170218102Y-79845226D01*
X170418061Y-79885000D01*
X170621939Y-79885000D01*
X170821898Y-79845226D01*
X170942454Y-79795290D01*
X170952795Y-79820256D01*
X171066063Y-79989774D01*
X171210226Y-80133937D01*
X171379744Y-80247205D01*
X171568102Y-80325226D01*
X171768061Y-80365000D01*
X171971939Y-80365000D01*
X172171898Y-80325226D01*
X172360256Y-80247205D01*
X172529774Y-80133937D01*
X172673937Y-79989774D01*
X172787205Y-79820256D01*
X172865226Y-79631898D01*
X172905000Y-79431939D01*
X172905000Y-79228061D01*
X172865226Y-79028102D01*
X172787205Y-78839744D01*
X172673937Y-78670226D01*
X172529774Y-78526063D01*
X172360256Y-78412795D01*
X172171898Y-78334774D01*
X171971939Y-78295000D01*
X171768061Y-78295000D01*
X171568102Y-78334774D01*
X171447546Y-78384710D01*
X171437205Y-78359744D01*
X171323937Y-78190226D01*
X171179774Y-78046063D01*
X171010256Y-77932795D01*
X170821898Y-77854774D01*
X170621939Y-77815000D01*
X170418061Y-77815000D01*
X170218102Y-77854774D01*
X170029744Y-77932795D01*
X169860226Y-78046063D01*
X169716063Y-78190226D01*
X169602795Y-78359744D01*
X169524774Y-78548102D01*
X169485000Y-78748061D01*
X169385000Y-78748061D01*
X169385000Y-78662835D01*
X169350990Y-78491855D01*
X169284277Y-78330795D01*
X169187424Y-78185845D01*
X169064155Y-78062576D01*
X168919205Y-77965723D01*
X168758145Y-77899010D01*
X168587165Y-77865000D01*
X168412835Y-77865000D01*
X168241855Y-77899010D01*
X168080795Y-77965723D01*
X167935845Y-78062576D01*
X167812576Y-78185845D01*
X167715723Y-78330795D01*
X167649010Y-78491855D01*
X167615000Y-78662835D01*
X156742942Y-78662835D01*
X156686632Y-78606525D01*
X156512240Y-78490000D01*
X156686632Y-78373475D01*
X156893475Y-78166632D01*
X157055990Y-77923411D01*
X157167932Y-77653158D01*
X157225000Y-77366260D01*
X157225000Y-77162835D01*
X160365000Y-77162835D01*
X160365000Y-77337165D01*
X160399010Y-77508145D01*
X160465723Y-77669205D01*
X160562576Y-77814155D01*
X160685845Y-77937424D01*
X160830795Y-78034277D01*
X160991855Y-78100990D01*
X161162835Y-78135000D01*
X161337165Y-78135000D01*
X161508145Y-78100990D01*
X161669205Y-78034277D01*
X161777053Y-77962215D01*
X161782930Y-77991759D01*
X161849643Y-78152819D01*
X161946496Y-78297769D01*
X162069765Y-78421038D01*
X162214715Y-78517891D01*
X162375775Y-78584604D01*
X162546755Y-78618614D01*
X162721085Y-78618614D01*
X162892065Y-78584604D01*
X162962517Y-78555422D01*
X162975311Y-78560721D01*
X163146291Y-78594731D01*
X163320621Y-78594731D01*
X163491601Y-78560721D01*
X163652661Y-78494008D01*
X163656737Y-78491284D01*
X163739978Y-78507842D01*
X163914308Y-78507842D01*
X164085288Y-78473832D01*
X164097797Y-78468651D01*
X164126951Y-78488131D01*
X164288011Y-78554844D01*
X164458991Y-78588854D01*
X164633321Y-78588854D01*
X164804301Y-78554844D01*
X164965361Y-78488131D01*
X165110311Y-78391278D01*
X165233580Y-78268009D01*
X165330433Y-78123059D01*
X165397146Y-77961999D01*
X165431156Y-77791019D01*
X165431156Y-77616689D01*
X165397146Y-77445709D01*
X165343302Y-77315717D01*
X165419205Y-77284277D01*
X165564155Y-77187424D01*
X165687424Y-77064155D01*
X165784277Y-76919205D01*
X165850990Y-76758145D01*
X165885000Y-76587165D01*
X165885000Y-76412835D01*
X165850990Y-76241855D01*
X165784277Y-76080795D01*
X165687424Y-75935845D01*
X165564155Y-75812576D01*
X165542432Y-75798061D01*
X166025000Y-75798061D01*
X166025000Y-76001939D01*
X166064774Y-76201898D01*
X166142795Y-76390256D01*
X166256063Y-76559774D01*
X166400226Y-76703937D01*
X166569744Y-76817205D01*
X166758102Y-76895226D01*
X166958061Y-76935000D01*
X167161939Y-76935000D01*
X167361898Y-76895226D01*
X167550256Y-76817205D01*
X167719774Y-76703937D01*
X167863937Y-76559774D01*
X167977205Y-76390256D01*
X168055226Y-76201898D01*
X168095000Y-76001939D01*
X168095000Y-75798061D01*
X168055226Y-75598102D01*
X167977205Y-75409744D01*
X167863937Y-75240226D01*
X167719774Y-75096063D01*
X167550256Y-74982795D01*
X167361898Y-74904774D01*
X167161939Y-74865000D01*
X166958061Y-74865000D01*
X166758102Y-74904774D01*
X166569744Y-74982795D01*
X166400226Y-75096063D01*
X166256063Y-75240226D01*
X166142795Y-75409744D01*
X166064774Y-75598102D01*
X166025000Y-75798061D01*
X165542432Y-75798061D01*
X165419205Y-75715723D01*
X165258145Y-75649010D01*
X165087165Y-75615000D01*
X164912835Y-75615000D01*
X164741855Y-75649010D01*
X164580795Y-75715723D01*
X164435845Y-75812576D01*
X164312576Y-75935845D01*
X164215723Y-76080795D01*
X164149010Y-76241855D01*
X164115000Y-76412835D01*
X164115000Y-76587165D01*
X164149010Y-76758145D01*
X164169061Y-76806552D01*
X164085288Y-76771852D01*
X163914308Y-76737842D01*
X163739978Y-76737842D01*
X163568998Y-76771852D01*
X163407938Y-76838565D01*
X163403862Y-76841289D01*
X163320621Y-76824731D01*
X163146291Y-76824731D01*
X162975311Y-76858741D01*
X162904859Y-76887923D01*
X162892065Y-76882624D01*
X162721085Y-76848614D01*
X162622226Y-76848614D01*
X162600990Y-76741855D01*
X162534277Y-76580795D01*
X162437424Y-76435845D01*
X162314155Y-76312576D01*
X162169205Y-76215723D01*
X162008145Y-76149010D01*
X161837165Y-76115000D01*
X161662835Y-76115000D01*
X161491855Y-76149010D01*
X161330795Y-76215723D01*
X161185845Y-76312576D01*
X161126117Y-76372304D01*
X160991855Y-76399010D01*
X160830795Y-76465723D01*
X160685845Y-76562576D01*
X160562576Y-76685845D01*
X160465723Y-76830795D01*
X160399010Y-76991855D01*
X160365000Y-77162835D01*
X157225000Y-77162835D01*
X157225000Y-77073740D01*
X157167932Y-76786842D01*
X157055990Y-76516589D01*
X156893475Y-76273368D01*
X156686632Y-76066525D01*
X156512240Y-75950000D01*
X156686632Y-75833475D01*
X156893475Y-75626632D01*
X157055990Y-75383411D01*
X157167932Y-75113158D01*
X157210046Y-74901436D01*
X157245506Y-74930537D01*
X157355820Y-74989502D01*
X157475518Y-75025812D01*
X157600000Y-75038072D01*
X158164250Y-75035000D01*
X158323000Y-74876250D01*
X158323000Y-73677000D01*
X157123750Y-73677000D01*
X156965000Y-73835750D01*
X156964975Y-73840375D01*
X156893475Y-73733368D01*
X156686632Y-73526525D01*
X156512240Y-73410000D01*
X156686632Y-73293475D01*
X156893475Y-73086632D01*
X156963463Y-72981888D01*
X156965000Y-73264250D01*
X157123750Y-73423000D01*
X158323000Y-73423000D01*
X158323000Y-72223750D01*
X158577000Y-72223750D01*
X158577000Y-73423000D01*
X158597000Y-73423000D01*
X158597000Y-73677000D01*
X158577000Y-73677000D01*
X158577000Y-74876250D01*
X158735750Y-75035000D01*
X159300000Y-75038072D01*
X159424482Y-75025812D01*
X159544180Y-74989502D01*
X159654494Y-74930537D01*
X159751185Y-74851185D01*
X159830537Y-74754494D01*
X159889502Y-74644180D01*
X159911513Y-74571620D01*
X160043368Y-74703475D01*
X160286589Y-74865990D01*
X160556842Y-74977932D01*
X160843740Y-75035000D01*
X161136260Y-75035000D01*
X161423158Y-74977932D01*
X161693411Y-74865990D01*
X161936632Y-74703475D01*
X162143475Y-74496632D01*
X162260000Y-74322240D01*
X162376525Y-74496632D01*
X162583368Y-74703475D01*
X162826589Y-74865990D01*
X163096842Y-74977932D01*
X163383740Y-75035000D01*
X163676260Y-75035000D01*
X163963158Y-74977932D01*
X164233411Y-74865990D01*
X164476632Y-74703475D01*
X164683475Y-74496632D01*
X164845990Y-74253411D01*
X164957932Y-73983158D01*
X165015000Y-73696260D01*
X165015000Y-73403740D01*
X164957932Y-73116842D01*
X164845990Y-72846589D01*
X164683475Y-72603368D01*
X164592942Y-72512835D01*
X164915000Y-72512835D01*
X164915000Y-72687165D01*
X164949010Y-72858145D01*
X165015723Y-73019205D01*
X165112576Y-73164155D01*
X165235845Y-73287424D01*
X165380795Y-73384277D01*
X165541855Y-73450990D01*
X165712835Y-73485000D01*
X165887165Y-73485000D01*
X166058145Y-73450990D01*
X166219205Y-73384277D01*
X166364155Y-73287424D01*
X166487424Y-73164155D01*
X166584277Y-73019205D01*
X166650990Y-72858145D01*
X166685000Y-72687165D01*
X166685000Y-72512835D01*
X166650990Y-72341855D01*
X166584277Y-72180795D01*
X166487424Y-72035845D01*
X166364155Y-71912576D01*
X166219205Y-71815723D01*
X166058145Y-71749010D01*
X165887165Y-71715000D01*
X165712835Y-71715000D01*
X165541855Y-71749010D01*
X165380795Y-71815723D01*
X165235845Y-71912576D01*
X165112576Y-72035845D01*
X165015723Y-72180795D01*
X164949010Y-72341855D01*
X164915000Y-72512835D01*
X164592942Y-72512835D01*
X164476632Y-72396525D01*
X164233411Y-72234010D01*
X163963158Y-72122068D01*
X163676260Y-72065000D01*
X163383740Y-72065000D01*
X163096842Y-72122068D01*
X162826589Y-72234010D01*
X162583368Y-72396525D01*
X162376525Y-72603368D01*
X162260000Y-72777760D01*
X162143475Y-72603368D01*
X161936632Y-72396525D01*
X161693411Y-72234010D01*
X161423158Y-72122068D01*
X161136260Y-72065000D01*
X160843740Y-72065000D01*
X160556842Y-72122068D01*
X160511370Y-72140903D01*
X160559277Y-72069205D01*
X160625990Y-71908145D01*
X160660000Y-71737165D01*
X160660000Y-71562835D01*
X160625990Y-71391855D01*
X160559277Y-71230795D01*
X160462424Y-71085845D01*
X160339155Y-70962576D01*
X160194205Y-70865723D01*
X160033145Y-70799010D01*
X159862165Y-70765000D01*
X159687835Y-70765000D01*
X159516855Y-70799010D01*
X159355795Y-70865723D01*
X159210845Y-70962576D01*
X159087576Y-71085845D01*
X158990723Y-71230795D01*
X158924010Y-71391855D01*
X158890000Y-71562835D01*
X158890000Y-71737165D01*
X158924010Y-71908145D01*
X158988411Y-72063624D01*
X158735750Y-72065000D01*
X158577000Y-72223750D01*
X158323000Y-72223750D01*
X158164250Y-72065000D01*
X157600000Y-72061928D01*
X157475518Y-72074188D01*
X157355820Y-72110498D01*
X157245506Y-72169463D01*
X157225000Y-72186292D01*
X157225000Y-71993740D01*
X157167932Y-71706842D01*
X157055990Y-71436589D01*
X156893475Y-71193368D01*
X156686632Y-70986525D01*
X156512240Y-70870000D01*
X156686632Y-70753475D01*
X156893475Y-70546632D01*
X157055990Y-70303411D01*
X157167932Y-70033158D01*
X157225000Y-69746260D01*
X157225000Y-69453740D01*
X157167932Y-69166842D01*
X157055990Y-68896589D01*
X156893475Y-68653368D01*
X156751468Y-68511361D01*
X160291000Y-68511361D01*
X160291000Y-69788638D01*
X160308566Y-69966985D01*
X160377983Y-70195825D01*
X160490712Y-70406725D01*
X160642419Y-70591581D01*
X160827274Y-70743288D01*
X161038174Y-70856017D01*
X161267014Y-70925434D01*
X161505000Y-70948874D01*
X161742985Y-70925434D01*
X161971825Y-70856017D01*
X162182725Y-70743288D01*
X162367581Y-70591581D01*
X162519288Y-70406726D01*
X162632017Y-70195826D01*
X162701434Y-69966986D01*
X162719000Y-69788639D01*
X162719000Y-69425000D01*
X162983647Y-69425000D01*
X163012477Y-69422160D01*
X163014280Y-69422173D01*
X163023799Y-69421240D01*
X163053267Y-69418143D01*
X163084283Y-69415088D01*
X163085702Y-69414658D01*
X163145777Y-69402326D01*
X163206743Y-69390696D01*
X163215900Y-69387932D01*
X163274626Y-69369753D01*
X163331860Y-69345694D01*
X163389421Y-69322438D01*
X163397866Y-69317948D01*
X163451945Y-69288708D01*
X163503416Y-69253991D01*
X163555369Y-69219994D01*
X163562781Y-69213949D01*
X163610150Y-69174762D01*
X163653904Y-69130701D01*
X163698260Y-69087264D01*
X163704357Y-69079894D01*
X163743211Y-69032253D01*
X163777558Y-68980555D01*
X163812639Y-68929321D01*
X163817188Y-68920908D01*
X163846050Y-68866628D01*
X163869704Y-68809239D01*
X163894167Y-68752163D01*
X163896995Y-68743026D01*
X163914764Y-68684173D01*
X163926819Y-68623290D01*
X163939732Y-68562539D01*
X163940732Y-68553027D01*
X163946731Y-68491843D01*
X163946731Y-68461868D01*
X163949963Y-68432072D01*
X163949995Y-68422508D01*
X163949987Y-68420309D01*
X163946964Y-68390593D01*
X163947173Y-68360720D01*
X163946240Y-68351201D01*
X163944163Y-68331433D01*
X167875000Y-68331433D01*
X167875000Y-68518567D01*
X167911508Y-68702105D01*
X167983121Y-68874994D01*
X168087087Y-69030590D01*
X168219410Y-69162913D01*
X168375006Y-69266879D01*
X168547895Y-69338492D01*
X168731433Y-69375000D01*
X168918567Y-69375000D01*
X168931000Y-69372527D01*
X168931000Y-69788638D01*
X168948566Y-69966985D01*
X169017983Y-70195825D01*
X169130712Y-70406725D01*
X169282419Y-70591581D01*
X169467274Y-70743288D01*
X169678174Y-70856017D01*
X169907014Y-70925434D01*
X170145000Y-70948874D01*
X170382985Y-70925434D01*
X170611825Y-70856017D01*
X170822725Y-70743288D01*
X171007581Y-70591581D01*
X171159288Y-70406726D01*
X171240000Y-70255725D01*
X171240000Y-70287165D01*
X171274010Y-70458145D01*
X171340723Y-70619205D01*
X171437576Y-70764155D01*
X171560845Y-70887424D01*
X171705795Y-70984277D01*
X171866855Y-71050990D01*
X172037835Y-71085000D01*
X172212165Y-71085000D01*
X172383145Y-71050990D01*
X172544205Y-70984277D01*
X172689155Y-70887424D01*
X172812424Y-70764155D01*
X172909277Y-70619205D01*
X172975990Y-70458145D01*
X173010000Y-70287165D01*
X173010000Y-70112835D01*
X172975990Y-69941855D01*
X172909277Y-69780795D01*
X172812424Y-69635845D01*
X172689155Y-69512576D01*
X172544205Y-69415723D01*
X172383145Y-69349010D01*
X172212165Y-69315000D01*
X172037835Y-69315000D01*
X171866855Y-69349010D01*
X171705795Y-69415723D01*
X171560845Y-69512576D01*
X171437576Y-69635845D01*
X171359000Y-69753442D01*
X171359000Y-68511361D01*
X171341434Y-68333014D01*
X171272017Y-68104174D01*
X171159288Y-67893274D01*
X171007581Y-67708419D01*
X170822726Y-67556712D01*
X170611826Y-67443983D01*
X170382986Y-67374566D01*
X170145000Y-67351126D01*
X169907015Y-67374566D01*
X169678175Y-67443983D01*
X169467275Y-67556712D01*
X169363244Y-67642088D01*
X169274994Y-67583121D01*
X169102105Y-67511508D01*
X168918567Y-67475000D01*
X168731433Y-67475000D01*
X168547895Y-67511508D01*
X168375006Y-67583121D01*
X168219410Y-67687087D01*
X168087087Y-67819410D01*
X167983121Y-67975006D01*
X167911508Y-68147895D01*
X167875000Y-68331433D01*
X163944163Y-68331433D01*
X163939814Y-68290060D01*
X163927329Y-68229236D01*
X163915696Y-68168256D01*
X163912932Y-68159100D01*
X163894753Y-68100373D01*
X163870678Y-68043102D01*
X163847438Y-67985579D01*
X163842948Y-67977134D01*
X163813708Y-67923055D01*
X163778973Y-67871558D01*
X163744993Y-67819631D01*
X163738949Y-67812219D01*
X163699762Y-67764850D01*
X163655682Y-67721077D01*
X163612263Y-67676740D01*
X163604894Y-67670643D01*
X163557252Y-67631788D01*
X163505524Y-67597421D01*
X163454321Y-67562361D01*
X163445908Y-67557812D01*
X163391627Y-67528950D01*
X163334252Y-67505302D01*
X163277163Y-67480833D01*
X163268026Y-67478005D01*
X163209173Y-67460236D01*
X163148282Y-67448179D01*
X163087538Y-67435268D01*
X163084353Y-67434933D01*
X163084283Y-67434912D01*
X163082204Y-67434707D01*
X163078026Y-67434268D01*
X163016843Y-67428269D01*
X163016837Y-67428269D01*
X162983647Y-67425000D01*
X162666353Y-67425000D01*
X162637523Y-67427840D01*
X162635720Y-67427827D01*
X162626201Y-67428760D01*
X162596733Y-67431857D01*
X162565717Y-67434912D01*
X162564298Y-67435342D01*
X162504236Y-67447671D01*
X162443256Y-67459304D01*
X162434100Y-67462068D01*
X162375373Y-67480247D01*
X162318102Y-67504322D01*
X162260579Y-67527562D01*
X162252134Y-67532052D01*
X162198055Y-67561292D01*
X162192704Y-67564901D01*
X162182726Y-67556712D01*
X161971826Y-67443983D01*
X161742986Y-67374566D01*
X161505000Y-67351126D01*
X161267015Y-67374566D01*
X161038175Y-67443983D01*
X160827275Y-67556712D01*
X160642420Y-67708419D01*
X160490713Y-67893274D01*
X160377983Y-68104174D01*
X160308566Y-68333014D01*
X160291000Y-68511361D01*
X156751468Y-68511361D01*
X156686632Y-68446525D01*
X156504466Y-68324805D01*
X156621355Y-68255178D01*
X156837588Y-68060269D01*
X157011641Y-67826920D01*
X157136825Y-67564099D01*
X157181476Y-67416890D01*
X157060155Y-67187000D01*
X155867000Y-67187000D01*
X155867000Y-67207000D01*
X155613000Y-67207000D01*
X155613000Y-67187000D01*
X155593000Y-67187000D01*
X155593000Y-66933000D01*
X155613000Y-66933000D01*
X155613000Y-66913000D01*
X155867000Y-66913000D01*
X155867000Y-66933000D01*
X157060155Y-66933000D01*
X157181476Y-66703110D01*
X157136825Y-66555901D01*
X157011641Y-66293080D01*
X156837588Y-66059731D01*
X156753534Y-65983966D01*
X156834180Y-65959502D01*
X156944494Y-65900537D01*
X157041185Y-65821185D01*
X157120537Y-65724494D01*
X157179502Y-65614180D01*
X157215812Y-65494482D01*
X157228072Y-65370000D01*
X157228072Y-63670000D01*
X157215812Y-63545518D01*
X157179502Y-63425820D01*
X157120537Y-63315506D01*
X157041185Y-63218815D01*
X156980411Y-63168939D01*
X158380708Y-63168316D01*
X158323102Y-63179774D01*
X158134744Y-63257795D01*
X157965226Y-63371063D01*
X157821063Y-63515226D01*
X157707795Y-63684744D01*
X157629774Y-63873102D01*
X157590000Y-64073061D01*
X157590000Y-64276939D01*
X157629774Y-64476898D01*
X157707795Y-64665256D01*
X157821063Y-64834774D01*
X157965226Y-64978937D01*
X158134744Y-65092205D01*
X158323102Y-65170226D01*
X158523061Y-65210000D01*
X158726939Y-65210000D01*
X158926898Y-65170226D01*
X159115256Y-65092205D01*
X159284774Y-64978937D01*
X159428937Y-64834774D01*
X159542205Y-64665256D01*
X159542586Y-64664335D01*
X160270000Y-64664335D01*
X160270000Y-65985664D01*
X160287870Y-66167101D01*
X160358489Y-66399900D01*
X160473167Y-66614448D01*
X160627498Y-66802502D01*
X160815551Y-66956833D01*
X161030099Y-67071511D01*
X161262898Y-67142130D01*
X161505000Y-67165975D01*
X161747101Y-67142130D01*
X161979900Y-67071511D01*
X162194448Y-66956833D01*
X162382502Y-66802502D01*
X162536833Y-66614449D01*
X162651511Y-66399901D01*
X162722130Y-66167102D01*
X162740000Y-65985665D01*
X162740000Y-64664335D01*
X168910000Y-64664335D01*
X168910000Y-65985664D01*
X168927870Y-66167101D01*
X168998489Y-66399900D01*
X169113167Y-66614448D01*
X169267498Y-66802502D01*
X169455551Y-66956833D01*
X169670099Y-67071511D01*
X169902898Y-67142130D01*
X170145000Y-67165975D01*
X170387101Y-67142130D01*
X170619900Y-67071511D01*
X170834448Y-66956833D01*
X171022502Y-66802502D01*
X171176833Y-66614449D01*
X171291511Y-66399901D01*
X171362130Y-66167102D01*
X171380000Y-65985665D01*
X171380000Y-64664335D01*
X171362130Y-64482898D01*
X171291511Y-64250099D01*
X171176833Y-64035551D01*
X171022502Y-63847498D01*
X170834449Y-63693167D01*
X170619901Y-63578489D01*
X170387102Y-63507870D01*
X170145000Y-63484025D01*
X169902899Y-63507870D01*
X169670100Y-63578489D01*
X169455552Y-63693167D01*
X169267499Y-63847498D01*
X169113168Y-64035551D01*
X168998489Y-64250099D01*
X168927870Y-64482898D01*
X168910000Y-64664335D01*
X162740000Y-64664335D01*
X162722130Y-64482898D01*
X162651511Y-64250099D01*
X162536833Y-64035551D01*
X162382502Y-63847498D01*
X162194449Y-63693167D01*
X161979901Y-63578489D01*
X161747102Y-63507870D01*
X161505000Y-63484025D01*
X161262899Y-63507870D01*
X161030100Y-63578489D01*
X160815552Y-63693167D01*
X160627499Y-63847498D01*
X160473168Y-64035551D01*
X160358489Y-64250099D01*
X160287870Y-64482898D01*
X160270000Y-64664335D01*
X159542586Y-64664335D01*
X159620226Y-64476898D01*
X159660000Y-64276939D01*
X159660000Y-64073061D01*
X159620226Y-63873102D01*
X159542205Y-63684744D01*
X159428937Y-63515226D01*
X159284774Y-63371063D01*
X159115256Y-63257795D01*
X158926898Y-63179774D01*
X158868201Y-63168098D01*
X174640434Y-63161073D01*
X174618815Y-63178815D01*
G37*
%TD.AperFunction*%
%TD*%
D17*
X166240000Y-74110000D03*
D18*
X169160005Y-81280000D03*
X165050000Y-82030000D03*
D17*
X161800000Y-71230000D03*
X170630000Y-76790000D03*
X160500000Y-75500000D03*
X169740000Y-77120000D03*
X172660000Y-81120000D03*
X173300000Y-74190000D03*
X167950000Y-72440000D03*
X172750000Y-82250000D03*
X163250000Y-76000000D03*
D18*
X169000000Y-75000000D03*
X165900000Y-88850000D03*
X164530000Y-89210000D03*
X167000000Y-88850000D03*
D17*
X167880000Y-88340000D03*
D18*
X166810000Y-86250000D03*
X159185000Y-77400000D03*
X158800000Y-82100000D03*
X159485464Y-84962744D03*
X170900000Y-85700000D03*
X161750000Y-77000000D03*
D17*
X174250000Y-76000000D03*
D18*
X161250000Y-77250000D03*
D17*
X170520000Y-78850000D03*
X171870000Y-79330000D03*
X167060000Y-75900000D03*
D18*
X164485618Y-87545618D03*
X165930000Y-87830000D03*
X158100000Y-85300000D03*
X166300000Y-86960000D03*
X167957103Y-86992897D03*
X162633920Y-77733614D03*
X163233456Y-77709731D03*
X163827143Y-77622842D03*
X164546156Y-77703854D03*
X165000000Y-76500000D03*
X168500000Y-78750000D03*
X170000000Y-84000000D03*
X174000000Y-79000000D03*
X174000000Y-77350000D03*
X164963226Y-86222957D03*
X164344976Y-86207900D03*
X160620006Y-83869996D03*
X160793315Y-83250010D03*
X165800000Y-72600000D03*
X160180002Y-81780000D03*
X160667281Y-81181854D03*
X163671457Y-86336682D03*
X163124335Y-86582997D03*
X162527921Y-86517385D03*
X161750000Y-86500000D03*
X161434517Y-85728421D03*
X160750000Y-84500000D03*
D17*
X173050000Y-64150000D03*
D18*
X159300000Y-69675000D03*
D17*
X162625000Y-69975000D03*
X169050000Y-69975000D03*
X158625000Y-64175000D03*
D18*
X160200000Y-80755000D03*
X159775000Y-71650000D03*
X172125000Y-70200000D03*
D17*
X175920000Y-64480000D03*
X175920000Y-67020000D03*
X175920000Y-69560000D03*
X175920000Y-72100000D03*
X175920000Y-74640000D03*
X175920000Y-77180000D03*
X175920000Y-79720000D03*
X175920000Y-82260000D03*
X175920000Y-84800000D03*
X175920000Y-87340000D03*
X175920000Y-89880000D03*
X175920000Y-92420000D03*
X155740000Y-64520000D03*
X155740000Y-67060000D03*
X155740000Y-69600000D03*
X155740000Y-72140000D03*
X155740000Y-74680000D03*
X155740000Y-77220000D03*
X155740000Y-79760000D03*
X155740000Y-82300000D03*
X155740000Y-84840000D03*
X155740000Y-87380000D03*
X155740000Y-89920000D03*
X155740000Y-92460000D03*
X158450000Y-73550000D03*
X160990000Y-73550000D03*
X163530000Y-73550000D03*
D19*
X161505000Y-65325000D03*
X170145000Y-65325000D03*
D20*
X161505000Y-69150000D03*
X170145000Y-69150000D03*
D17*
X168825000Y-68425000D03*
X162825000Y-68425000D03*
X162825000Y-68425000D03*
M02*
