%TF.GenerationSoftware,KiCad,Pcbnew,6.0.0*%
%TF.CreationDate,2022-01-30T15:16:09-05:00*%
%TF.ProjectId,stm32wb55ce_development_board,73746d33-3277-4623-9535-63655f646576,rev?*%
%TF.SameCoordinates,Original*%
%TF.FileFunction,Copper,L4,Bot*%
%TF.FilePolarity,Positive*%
%FSLAX46Y46*%
G04 Gerber Fmt 4.6, Leading zero omitted, Abs format (unit mm)*
G04 Created by KiCad (PCBNEW 6.0.0) date 2022-01-30 15:16:09*
%MOMM*%
%LPD*%
G01*
G04 APERTURE LIST*
%TA.AperFunction,ComponentPad*%
%ADD10R,1.700000X1.700000*%
%TD*%
%TA.AperFunction,ComponentPad*%
%ADD11O,1.700000X1.700000*%
%TD*%
%TA.AperFunction,ComponentPad*%
%ADD12O,1.200000X2.400000*%
%TD*%
%TA.AperFunction,ComponentPad*%
%ADD13O,1.158000X2.316000*%
%TD*%
%TA.AperFunction,ViaPad*%
%ADD14C,0.800000*%
%TD*%
%TA.AperFunction,ViaPad*%
%ADD15C,0.500000*%
%TD*%
%TA.AperFunction,Conductor*%
%ADD16C,0.250000*%
%TD*%
%TA.AperFunction,Conductor*%
%ADD17C,0.300000*%
%TD*%
%ADD18C,0.350000*%
%ADD19C,0.250000*%
%ADD20O,0.650000X1.950000*%
%ADD21O,0.650000X1.650000*%
G04 APERTURE END LIST*
D10*
%TO.P,J3,1*%
%TO.N,+3V3*%
X175920000Y-64480000D03*
D11*
%TO.P,J3,2*%
%TO.N,GND*%
X175920000Y-67020000D03*
%TO.P,J3,3*%
%TO.N,/PA15*%
X175920000Y-69560000D03*
%TO.P,J3,4*%
%TO.N,/PB0*%
X175920000Y-72100000D03*
%TO.P,J3,5*%
%TO.N,/PB1*%
X175920000Y-74640000D03*
%TO.P,J3,6*%
%TO.N,/PA10*%
X175920000Y-77180000D03*
%TO.P,J3,7*%
%TO.N,/PB4*%
X175920000Y-79720000D03*
%TO.P,J3,8*%
%TO.N,/PB5*%
X175920000Y-82260000D03*
%TO.P,J3,9*%
%TO.N,/PB6*%
X175920000Y-84800000D03*
%TO.P,J3,10*%
%TO.N,/PB7*%
X175920000Y-87340000D03*
%TO.P,J3,11*%
%TO.N,/PB8*%
X175920000Y-89880000D03*
%TO.P,J3,12*%
%TO.N,/PB9*%
X175920000Y-92420000D03*
%TD*%
D10*
%TO.P,J1,1*%
%TO.N,+3V3*%
X155740000Y-64520000D03*
D11*
%TO.P,J1,2*%
%TO.N,GND*%
X155740000Y-67060000D03*
%TO.P,J1,3*%
%TO.N,/PA0*%
X155740000Y-69600000D03*
%TO.P,J1,4*%
%TO.N,/PA1*%
X155740000Y-72140000D03*
%TO.P,J1,5*%
%TO.N,/PA2*%
X155740000Y-74680000D03*
%TO.P,J1,6*%
%TO.N,/PA3*%
X155740000Y-77220000D03*
%TO.P,J1,7*%
%TO.N,/PA4*%
X155740000Y-79760000D03*
%TO.P,J1,8*%
%TO.N,/PA5*%
X155740000Y-82300000D03*
%TO.P,J1,9*%
%TO.N,/PA6*%
X155740000Y-84840000D03*
%TO.P,J1,10*%
%TO.N,/PA7*%
X155740000Y-87380000D03*
%TO.P,J1,11*%
%TO.N,/PA8*%
X155740000Y-89920000D03*
%TO.P,J1,12*%
%TO.N,/PA9*%
X155740000Y-92460000D03*
%TD*%
D10*
%TO.P,J4,1*%
%TO.N,GND*%
X158450000Y-73550000D03*
D11*
%TO.P,J4,2*%
%TO.N,/PA14*%
X160990000Y-73550000D03*
%TO.P,J4,3*%
%TO.N,/PA13*%
X163530000Y-73550000D03*
%TD*%
D12*
%TO.P,J2,S6*%
%TO.N,Net-(J2-PadS6)*%
X161505000Y-65325000D03*
%TO.P,J2,S5*%
%TO.N,Net-(J2-PadS5)*%
X170145000Y-65325000D03*
D13*
%TO.P,J2,S4*%
%TO.N,Net-(J2-PadS4)*%
X161505000Y-69150000D03*
%TO.P,J2,S3*%
%TO.N,Net-(J2-PadS3)*%
X170145000Y-69150000D03*
%TD*%
D14*
%TO.N,GND*%
X166240000Y-74110000D03*
D15*
X169160005Y-81280000D03*
X165050000Y-82030000D03*
D14*
X161800000Y-71230000D03*
X170630000Y-76790000D03*
X160500000Y-75500000D03*
X169740000Y-77120000D03*
X172660000Y-81120000D03*
X173300000Y-74190000D03*
X167950000Y-72440000D03*
X172750000Y-82250000D03*
X163250000Y-76000000D03*
D15*
X169000000Y-75000000D03*
X165900000Y-88850000D03*
X164530000Y-89210000D03*
X167000000Y-88850000D03*
D14*
X167880000Y-88340000D03*
D15*
X166810000Y-86250000D03*
X159185000Y-77400000D03*
X158800000Y-82100000D03*
X159485464Y-84962744D03*
X170900000Y-85700000D03*
%TO.N,+3V3*%
X161750000Y-77000000D03*
D14*
X174250000Y-76000000D03*
D15*
X161250000Y-77250000D03*
D14*
X170520000Y-78850000D03*
X171870000Y-79330000D03*
X167060000Y-75900000D03*
D15*
X164485618Y-87545618D03*
X165930000Y-87830000D03*
X158100000Y-85300000D03*
%TO.N,/RF1*%
X166300000Y-86960000D03*
X167957103Y-86992897D03*
%TO.N,/PB7*%
X162633920Y-77733614D03*
%TO.N,/PB6*%
X163233456Y-77709731D03*
%TO.N,/PB5*%
X163827143Y-77622842D03*
%TO.N,/PB4*%
X164546156Y-77703854D03*
%TO.N,/PA15*%
X165000000Y-76500000D03*
%TO.N,/PA10*%
X168500000Y-78750000D03*
%TO.N,/PB0*%
X170000000Y-84000000D03*
X174000000Y-79000000D03*
X174000000Y-77350000D03*
%TO.N,/PA9*%
X164963226Y-86222957D03*
%TO.N,/PA8*%
X164344976Y-86207900D03*
%TO.N,/PA1*%
X160620006Y-83869996D03*
%TO.N,/PA0*%
X160793315Y-83250010D03*
%TO.N,/RESET*%
X165800000Y-72600000D03*
%TO.N,/PB9*%
X160180002Y-81780000D03*
%TO.N,/PB8*%
X160667281Y-81181854D03*
%TO.N,/PA7*%
X163671457Y-86336682D03*
%TO.N,/PA6*%
X163124335Y-86582997D03*
%TO.N,/PA5*%
X162527921Y-86517385D03*
%TO.N,/PA4*%
X161750000Y-86500000D03*
%TO.N,/PA3*%
X161434517Y-85728421D03*
%TO.N,/PA2*%
X160750000Y-84500000D03*
D14*
%TO.N,GND*%
X173050000Y-64150000D03*
D15*
X159300000Y-69675000D03*
D14*
X162625000Y-69975000D03*
X169050000Y-69975000D03*
%TO.N,+3V3*%
X158625000Y-64175000D03*
D15*
%TO.N,/BOOT0*%
X160200000Y-80755000D03*
X159775000Y-71650000D03*
%TO.N,/RESET*%
X172125000Y-70200000D03*
%TD*%
D16*
%TO.N,/RF1*%
X166332897Y-86992897D02*
X167957103Y-86992897D01*
X166300000Y-86960000D02*
X166332897Y-86992897D01*
%TO.N,/PB7*%
X165525001Y-81801999D02*
X165525001Y-82899067D01*
X165525001Y-82899067D02*
X172125934Y-89500000D01*
X162633920Y-78910918D02*
X165525001Y-81801999D01*
X162633920Y-77733614D02*
X162633920Y-78910918D01*
X173760000Y-89500000D02*
X175920000Y-87340000D01*
X172125934Y-89500000D02*
X173760000Y-89500000D01*
%TO.N,/PB6*%
X163233456Y-77709731D02*
X163233456Y-77732157D01*
X163233456Y-77709731D02*
X163233456Y-79015466D01*
X166000000Y-81782010D02*
X166000000Y-82879078D01*
X163233456Y-79015466D02*
X166000000Y-81782010D01*
X166000000Y-82879078D02*
X166560461Y-83439539D01*
X166060461Y-82939539D02*
X166560461Y-83439539D01*
X166560461Y-83439539D02*
X171320940Y-88200018D01*
X173294970Y-88200018D02*
X174750010Y-86744978D01*
X171320940Y-88200018D02*
X173294970Y-88200018D01*
X174750010Y-85969990D02*
X175920000Y-84800000D01*
X174750010Y-86744978D02*
X174750010Y-85969990D01*
%TO.N,/PB5*%
X166350010Y-81637032D02*
X166350010Y-82734100D01*
X163827143Y-79114165D02*
X166350010Y-81637032D01*
X163827143Y-77622842D02*
X163827143Y-79114165D01*
X171465918Y-87850008D02*
X173149992Y-87850008D01*
X166350010Y-82734100D02*
X171465918Y-87850008D01*
X173149992Y-87850008D02*
X174400000Y-86600000D01*
X174400000Y-83780000D02*
X175920000Y-82260000D01*
X174400000Y-86600000D02*
X174400000Y-83780000D01*
%TO.N,/PB4*%
X166700020Y-82589122D02*
X171610898Y-87500000D01*
X166700020Y-81492054D02*
X166700020Y-82589122D01*
X164546156Y-79338190D02*
X166700020Y-81492054D01*
X164546156Y-77703854D02*
X164546156Y-79338190D01*
X171610898Y-87500000D02*
X173005012Y-87500000D01*
X174049990Y-81590010D02*
X175920000Y-79720000D01*
X174049990Y-86455022D02*
X174049990Y-81590010D01*
X173005012Y-87500000D02*
X174049990Y-86455022D01*
%TO.N,/PA15*%
X173736998Y-69560000D02*
X175920000Y-69560000D01*
X168524999Y-74771999D02*
X173736998Y-69560000D01*
X168524999Y-75360003D02*
X168524999Y-74771999D01*
X167135003Y-76749999D02*
X168524999Y-75360003D01*
X165249999Y-76749999D02*
X167135003Y-76749999D01*
X165000000Y-76500000D02*
X165249999Y-76749999D01*
%TO.N,/PA10*%
X169200001Y-78049999D02*
X168500000Y-78750000D01*
X175050001Y-78049999D02*
X175920000Y-77180000D01*
X169200001Y-78049999D02*
X175050001Y-78049999D01*
%TO.N,/PB0*%
X173854998Y-79000000D02*
X174000000Y-79000000D01*
X170000000Y-82854998D02*
X173854998Y-79000000D01*
X170000000Y-84000000D02*
X170000000Y-82854998D01*
X175920000Y-72495002D02*
X175920000Y-72100000D01*
X173624999Y-76974999D02*
X173624999Y-74790003D01*
X173624999Y-74790003D02*
X175920000Y-72495002D01*
X174000000Y-77350000D02*
X173624999Y-76974999D01*
D17*
%TO.N,/PA9*%
X164963226Y-86296772D02*
X164963226Y-86222957D01*
D16*
X162545849Y-89000000D02*
X161887473Y-89658376D01*
X163702988Y-89000000D02*
X162545849Y-89000000D01*
X165475001Y-87227987D02*
X163702988Y-89000000D01*
X165475001Y-86734732D02*
X165475001Y-87227987D01*
X164963226Y-86222957D02*
X165475001Y-86734732D01*
X158541624Y-89658376D02*
X155740000Y-92460000D01*
X161887473Y-89658376D02*
X158541624Y-89658376D01*
D17*
%TO.N,/PA8*%
X164344976Y-86349321D02*
X164344976Y-86207900D01*
D16*
X164344976Y-86705885D02*
X162000860Y-89050001D01*
X164344976Y-86207900D02*
X164344976Y-86705885D01*
X161999999Y-89050001D02*
X161741634Y-89308366D01*
X162000860Y-89050001D02*
X161999999Y-89050001D01*
X157785012Y-89920000D02*
X155740000Y-89920000D01*
X158396646Y-89308366D02*
X157785012Y-89920000D01*
X161741634Y-89308366D02*
X158396646Y-89308366D01*
%TO.N,/PA1*%
X160620006Y-83869996D02*
X159457655Y-83869996D01*
X159457655Y-83869996D02*
X158050028Y-82462369D01*
X157419999Y-74625001D02*
X155740000Y-72945002D01*
X158125001Y-74925001D02*
X157825001Y-74625001D01*
X155740000Y-72945002D02*
X155740000Y-72140000D01*
X157825001Y-74625001D02*
X157419999Y-74625001D01*
X158050028Y-75874974D02*
X158125001Y-75800001D01*
X158125001Y-75800001D02*
X158125001Y-74925001D01*
X158050028Y-82462369D02*
X158050028Y-75874974D01*
%TO.N,/PA0*%
X159525001Y-72519999D02*
X156605002Y-69600000D01*
X159525001Y-74580001D02*
X159525001Y-72519999D01*
X158475011Y-75629991D02*
X159525001Y-74580001D01*
X156605002Y-69600000D02*
X155740000Y-69600000D01*
X158475011Y-80931706D02*
X158475011Y-75629991D01*
X160793315Y-83250010D02*
X158475011Y-80931706D01*
%TO.N,/RESET*%
X167423616Y-70976384D02*
X170523616Y-70976384D01*
X165800000Y-72600000D02*
X167423616Y-70976384D01*
%TO.N,/PB9*%
X171860967Y-90225009D02*
X163415958Y-81780000D01*
X163415958Y-81780000D02*
X160180002Y-81780000D01*
X173725009Y-90225009D02*
X175920000Y-92420000D01*
X171860967Y-90225009D02*
X173725009Y-90225009D01*
%TO.N,/PB8*%
X172005945Y-89874999D02*
X163312800Y-81181854D01*
X163312800Y-81181854D02*
X160667281Y-81181854D01*
X173869987Y-89874999D02*
X173874988Y-89880000D01*
X173874988Y-89880000D02*
X175920000Y-89880000D01*
X172005945Y-89874999D02*
X173869987Y-89874999D01*
%TO.N,/PA7*%
X163671457Y-86884416D02*
X162880852Y-87675021D01*
X163671457Y-86336682D02*
X163671457Y-86884416D01*
X162874979Y-87675021D02*
X161591644Y-88958356D01*
X162880852Y-87675021D02*
X162874979Y-87675021D01*
X157318356Y-88958356D02*
X155740000Y-87380000D01*
X161591644Y-88958356D02*
X157318356Y-88958356D01*
D17*
%TO.N,/PA6*%
X163124335Y-86670667D02*
X163124335Y-86582997D01*
D16*
X163124335Y-86936550D02*
X162735874Y-87325011D01*
X163124335Y-86582997D02*
X163124335Y-86936550D01*
X162730001Y-87325011D02*
X161446666Y-88608346D01*
X162735874Y-87325011D02*
X162730001Y-87325011D01*
X159508346Y-88608346D02*
X155740000Y-84840000D01*
X161446666Y-88608346D02*
X159508346Y-88608346D01*
%TO.N,/PA5*%
X155850014Y-82300000D02*
X155740000Y-82300000D01*
X157239866Y-84410124D02*
X155740000Y-82910258D01*
X157239866Y-85637856D02*
X157239866Y-84410124D01*
X158577011Y-86975001D02*
X157239866Y-85637856D01*
X162070305Y-86975001D02*
X158577011Y-86975001D01*
X155740000Y-82910258D02*
X155740000Y-82300000D01*
X162527921Y-86517385D02*
X162070305Y-86975001D01*
%TO.N,/PA4*%
X157000000Y-83675270D02*
X157000000Y-81020000D01*
X157600000Y-84275270D02*
X157000000Y-83675270D01*
X157600000Y-85047000D02*
X157600000Y-84275270D01*
X157624999Y-85071999D02*
X157600000Y-85047000D01*
X157624999Y-85528001D02*
X157624999Y-85071999D01*
X157000000Y-81020000D02*
X155740000Y-79760000D01*
X158596998Y-86500000D02*
X157624999Y-85528001D01*
X161750000Y-86500000D02*
X158596998Y-86500000D01*
%TO.N,/PA3*%
X157350008Y-78830008D02*
X155740000Y-77220000D01*
X157350008Y-83530290D02*
X157350008Y-78830008D01*
X159548139Y-85728421D02*
X157350008Y-83530290D01*
X161434517Y-85728421D02*
X159548139Y-85728421D01*
%TO.N,/PA2*%
X157700018Y-76640018D02*
X155740000Y-74680000D01*
X157700018Y-82607347D02*
X157700018Y-76640018D01*
X159592671Y-84500000D02*
X157700018Y-82607347D01*
X160750000Y-84500000D02*
X159592671Y-84500000D01*
%TO.N,/BOOT0*%
X159914999Y-71789999D02*
X159775000Y-71650000D01*
X159914999Y-75159999D02*
X159914999Y-71789999D01*
X159874999Y-75199999D02*
X159914999Y-75159999D01*
X159874999Y-80429999D02*
X159874999Y-75199999D01*
X160200000Y-80755000D02*
X159874999Y-80429999D01*
%TO.N,/RESET*%
X171348616Y-70976384D02*
X172125000Y-70200000D01*
X170523616Y-70976384D02*
X171348616Y-70976384D01*
%TD*%
D18*
X166240000Y-74110000D03*
D19*
X169160005Y-81280000D03*
X165050000Y-82030000D03*
D18*
X161800000Y-71230000D03*
X170630000Y-76790000D03*
X160500000Y-75500000D03*
X169740000Y-77120000D03*
X172660000Y-81120000D03*
X173300000Y-74190000D03*
X167950000Y-72440000D03*
X172750000Y-82250000D03*
X163250000Y-76000000D03*
D19*
X169000000Y-75000000D03*
X165900000Y-88850000D03*
X164530000Y-89210000D03*
X167000000Y-88850000D03*
D18*
X167880000Y-88340000D03*
D19*
X166810000Y-86250000D03*
X159185000Y-77400000D03*
X158800000Y-82100000D03*
X159485464Y-84962744D03*
X170900000Y-85700000D03*
X161750000Y-77000000D03*
D18*
X174250000Y-76000000D03*
D19*
X161250000Y-77250000D03*
D18*
X170520000Y-78850000D03*
X171870000Y-79330000D03*
X167060000Y-75900000D03*
D19*
X164485618Y-87545618D03*
X165930000Y-87830000D03*
X158100000Y-85300000D03*
X166300000Y-86960000D03*
X167957103Y-86992897D03*
X162633920Y-77733614D03*
X163233456Y-77709731D03*
X163827143Y-77622842D03*
X164546156Y-77703854D03*
X165000000Y-76500000D03*
X168500000Y-78750000D03*
X170000000Y-84000000D03*
X174000000Y-79000000D03*
X174000000Y-77350000D03*
X164963226Y-86222957D03*
X164344976Y-86207900D03*
X160620006Y-83869996D03*
X160793315Y-83250010D03*
X165800000Y-72600000D03*
X160180002Y-81780000D03*
X160667281Y-81181854D03*
X163671457Y-86336682D03*
X163124335Y-86582997D03*
X162527921Y-86517385D03*
X161750000Y-86500000D03*
X161434517Y-85728421D03*
X160750000Y-84500000D03*
D18*
X173050000Y-64150000D03*
D19*
X159300000Y-69675000D03*
D18*
X162625000Y-69975000D03*
X169050000Y-69975000D03*
X158625000Y-64175000D03*
D19*
X160200000Y-80755000D03*
X159775000Y-71650000D03*
X172125000Y-70200000D03*
D18*
X175920000Y-64480000D03*
X175920000Y-67020000D03*
X175920000Y-69560000D03*
X175920000Y-72100000D03*
X175920000Y-74640000D03*
X175920000Y-77180000D03*
X175920000Y-79720000D03*
X175920000Y-82260000D03*
X175920000Y-84800000D03*
X175920000Y-87340000D03*
X175920000Y-89880000D03*
X175920000Y-92420000D03*
X155740000Y-64520000D03*
X155740000Y-67060000D03*
X155740000Y-69600000D03*
X155740000Y-72140000D03*
X155740000Y-74680000D03*
X155740000Y-77220000D03*
X155740000Y-79760000D03*
X155740000Y-82300000D03*
X155740000Y-84840000D03*
X155740000Y-87380000D03*
X155740000Y-89920000D03*
X155740000Y-92460000D03*
X158450000Y-73550000D03*
X160990000Y-73550000D03*
X163530000Y-73550000D03*
D20*
X161505000Y-65325000D03*
X170145000Y-65325000D03*
D21*
X161505000Y-69150000D03*
X170145000Y-69150000D03*
D18*
X168825000Y-68425000D03*
X162825000Y-68425000D03*
X162825000Y-68425000D03*
M02*
