M48
; DRILL file {KiCad 6.0.0} date Sun Jan 30 15:16:09 2022
; FORMAT={-:-/ absolute / metric / decimal}
; #@! TF.CreationDate,2022-01-30T15:16:09-05:00
; #@! TF.GenerationSoftware,Kicad,Pcbnew,6.0.0
; #@! TF.FileFunction,Plated,1,4,PTH
FMAT,2
METRIC
; #@! TA.AperFunction,Plated,PTH,ViaDrill
T1C0.250
; #@! TA.AperFunction,Plated,PTH,ViaDrill
T2C0.400
; #@! TA.AperFunction,Plated,PTH,ComponentDrill
T3C0.650
; #@! TA.AperFunction,Plated,PTH,ComponentDrill
T4C1.000
%
G90
G05
T1
X158.1Y-85.3
X158.8Y-82.1
X159.185Y-77.4
X159.3Y-69.675
X159.485Y-84.963
X159.775Y-71.65
X160.18Y-81.78
X160.2Y-80.755
X160.62Y-83.87
X160.667Y-81.182
X160.75Y-84.5
X160.793Y-83.25
X161.25Y-77.25
X161.435Y-85.728
X161.75Y-77.0
X161.75Y-86.5
X162.528Y-86.517
X162.634Y-77.734
X163.124Y-86.583
X163.233Y-77.71
X163.671Y-86.337
X163.827Y-77.623
X164.345Y-86.208
X164.486Y-87.546
X164.53Y-89.21
X164.546Y-77.704
X164.963Y-86.223
X165.0Y-76.5
X165.05Y-82.03
X165.8Y-72.6
X165.9Y-88.85
X165.93Y-87.83
X166.3Y-86.96
X166.81Y-86.25
X167.0Y-88.85
X167.957Y-86.993
X168.5Y-78.75
X169.0Y-75.0
X169.16Y-81.28
X170.0Y-84.0
X170.9Y-85.7
X172.125Y-70.2
X174.0Y-77.35
X174.0Y-79.0
T2
X158.625Y-64.175
X160.5Y-75.5
X161.8Y-71.23
X162.625Y-69.975
X163.25Y-76.0
X166.24Y-74.11
X167.06Y-75.9
X167.88Y-88.34
X167.95Y-72.44
X169.05Y-69.975
X169.74Y-77.12
X170.52Y-78.85
X170.63Y-76.79
X171.87Y-79.33
X172.66Y-81.12
X172.75Y-82.25
X173.05Y-64.15
X173.3Y-74.19
X174.25Y-76.0
T4
X155.74Y-64.52
X155.74Y-67.06
X155.74Y-69.6
X155.74Y-72.14
X155.74Y-74.68
X155.74Y-77.22
X155.74Y-79.76
X155.74Y-82.3
X155.74Y-84.84
X155.74Y-87.38
X155.74Y-89.92
X155.74Y-92.46
X158.45Y-73.55
X160.99Y-73.55
X163.53Y-73.55
X175.92Y-64.48
X175.92Y-67.02
X175.92Y-69.56
X175.92Y-72.1
X175.92Y-74.64
X175.92Y-77.18
X175.92Y-79.72
X175.92Y-82.26
X175.92Y-84.8
X175.92Y-87.34
X175.92Y-89.88
X175.92Y-92.42
T3
G00X161.505Y-65.975
M15
G01X161.505Y-64.675
M16
G05
G00X161.505Y-69.65
M15
G01X161.505Y-68.65
M16
G05
G00X170.145Y-65.975
M15
G01X170.145Y-64.675
M16
G05
G00X170.145Y-69.65
M15
G01X170.145Y-68.65
M16
G05
T0
M30
