%TF.GenerationSoftware,KiCad,Pcbnew,6.0.0*%
%TF.CreationDate,2022-01-30T15:16:09-05:00*%
%TF.ProjectId,stm32wb55ce_development_board,73746d33-3277-4623-9535-63655f646576,rev?*%
%TF.SameCoordinates,Original*%
%TF.FileFunction,Legend,Bot*%
%TF.FilePolarity,Positive*%
%FSLAX46Y46*%
G04 Gerber Fmt 4.6, Leading zero omitted, Abs format (unit mm)*
G04 Created by KiCad (PCBNEW 6.0.0) date 2022-01-30 15:16:09*
%MOMM*%
%LPD*%
G01*
G04 APERTURE LIST*
%ADD10C,0.350000*%
%ADD11C,0.250000*%
%ADD12O,0.650000X1.950000*%
%ADD13O,0.650000X1.650000*%
G04 APERTURE END LIST*
D10*
X166240000Y-74110000D03*
D11*
X169160005Y-81280000D03*
X165050000Y-82030000D03*
D10*
X161800000Y-71230000D03*
X170630000Y-76790000D03*
X160500000Y-75500000D03*
X169740000Y-77120000D03*
X172660000Y-81120000D03*
X173300000Y-74190000D03*
X167950000Y-72440000D03*
X172750000Y-82250000D03*
X163250000Y-76000000D03*
D11*
X169000000Y-75000000D03*
X165900000Y-88850000D03*
X164530000Y-89210000D03*
X167000000Y-88850000D03*
D10*
X167880000Y-88340000D03*
D11*
X166810000Y-86250000D03*
X159185000Y-77400000D03*
X158800000Y-82100000D03*
X159485464Y-84962744D03*
X170900000Y-85700000D03*
X161750000Y-77000000D03*
D10*
X174250000Y-76000000D03*
D11*
X161250000Y-77250000D03*
D10*
X170520000Y-78850000D03*
X171870000Y-79330000D03*
X167060000Y-75900000D03*
D11*
X164485618Y-87545618D03*
X165930000Y-87830000D03*
X158100000Y-85300000D03*
X166300000Y-86960000D03*
X167957103Y-86992897D03*
X162633920Y-77733614D03*
X163233456Y-77709731D03*
X163827143Y-77622842D03*
X164546156Y-77703854D03*
X165000000Y-76500000D03*
X168500000Y-78750000D03*
X170000000Y-84000000D03*
X174000000Y-79000000D03*
X174000000Y-77350000D03*
X164963226Y-86222957D03*
X164344976Y-86207900D03*
X160620006Y-83869996D03*
X160793315Y-83250010D03*
X165800000Y-72600000D03*
X160180002Y-81780000D03*
X160667281Y-81181854D03*
X163671457Y-86336682D03*
X163124335Y-86582997D03*
X162527921Y-86517385D03*
X161750000Y-86500000D03*
X161434517Y-85728421D03*
X160750000Y-84500000D03*
D10*
X173050000Y-64150000D03*
D11*
X159300000Y-69675000D03*
D10*
X162625000Y-69975000D03*
X169050000Y-69975000D03*
X158625000Y-64175000D03*
D11*
X160200000Y-80755000D03*
X159775000Y-71650000D03*
X172125000Y-70200000D03*
D10*
X175920000Y-64480000D03*
X175920000Y-67020000D03*
X175920000Y-69560000D03*
X175920000Y-72100000D03*
X175920000Y-74640000D03*
X175920000Y-77180000D03*
X175920000Y-79720000D03*
X175920000Y-82260000D03*
X175920000Y-84800000D03*
X175920000Y-87340000D03*
X175920000Y-89880000D03*
X175920000Y-92420000D03*
X155740000Y-64520000D03*
X155740000Y-67060000D03*
X155740000Y-69600000D03*
X155740000Y-72140000D03*
X155740000Y-74680000D03*
X155740000Y-77220000D03*
X155740000Y-79760000D03*
X155740000Y-82300000D03*
X155740000Y-84840000D03*
X155740000Y-87380000D03*
X155740000Y-89920000D03*
X155740000Y-92460000D03*
X158450000Y-73550000D03*
X160990000Y-73550000D03*
X163530000Y-73550000D03*
D12*
X161505000Y-65325000D03*
X170145000Y-65325000D03*
D13*
X161505000Y-69150000D03*
X170145000Y-69150000D03*
D10*
X168825000Y-68425000D03*
X162825000Y-68425000D03*
X162825000Y-68425000D03*
M02*
