%TF.GenerationSoftware,KiCad,Pcbnew,6.0.0*%
%TF.CreationDate,2022-01-30T15:16:09-05:00*%
%TF.ProjectId,stm32wb55ce_development_board,73746d33-3277-4623-9535-63655f646576,rev?*%
%TF.SameCoordinates,Original*%
%TF.FileFunction,Soldermask,Top*%
%TF.FilePolarity,Negative*%
%FSLAX46Y46*%
G04 Gerber Fmt 4.6, Leading zero omitted, Abs format (unit mm)*
G04 Created by KiCad (PCBNEW 6.0.0) date 2022-01-30 15:16:09*
%MOMM*%
%LPD*%
G01*
G04 APERTURE LIST*
G04 Aperture macros list*
%AMRoundRect*
0 Rectangle with rounded corners*
0 $1 Rounding radius*
0 $2 $3 $4 $5 $6 $7 $8 $9 X,Y pos of 4 corners*
0 Add a 4 corners polygon primitive as box body*
4,1,4,$2,$3,$4,$5,$6,$7,$8,$9,$2,$3,0*
0 Add four circle primitives for the rounded corners*
1,1,$1+$1,$2,$3*
1,1,$1+$1,$4,$5*
1,1,$1+$1,$6,$7*
1,1,$1+$1,$8,$9*
0 Add four rect primitives between the rounded corners*
20,1,$1+$1,$2,$3,$4,$5,0*
20,1,$1+$1,$4,$5,$6,$7,0*
20,1,$1+$1,$6,$7,$8,$9,0*
20,1,$1+$1,$8,$9,$2,$3,0*%
G04 Aperture macros list end*
%ADD10RoundRect,0.250000X-0.800000X0.200000X-0.800000X-0.200000X0.800000X-0.200000X0.800000X0.200000X0*%
%ADD11RoundRect,0.185000X-0.135000X-0.185000X0.135000X-0.185000X0.135000X0.185000X-0.135000X0.185000X0*%
%ADD12RoundRect,0.050000X-0.850000X-0.850000X0.850000X-0.850000X0.850000X0.850000X-0.850000X0.850000X0*%
%ADD13O,1.800000X1.800000*%
%ADD14RoundRect,0.050000X0.850000X-0.850000X0.850000X0.850000X-0.850000X0.850000X-0.850000X-0.850000X0*%
%ADD15RoundRect,0.050000X0.850000X-1.575000X0.850000X1.575000X-0.850000X1.575000X-0.850000X-1.575000X0*%
%ADD16RoundRect,0.197500X-0.147500X-0.172500X0.147500X-0.172500X0.147500X0.172500X-0.147500X0.172500X0*%
%ADD17RoundRect,0.197500X0.172500X-0.147500X0.172500X0.147500X-0.172500X0.147500X-0.172500X-0.147500X0*%
%ADD18RoundRect,0.197500X-0.172500X0.147500X-0.172500X-0.147500X0.172500X-0.147500X0.172500X0.147500X0*%
%ADD19RoundRect,0.050000X0.400000X-0.200000X0.400000X0.200000X-0.400000X0.200000X-0.400000X-0.200000X0*%
%ADD20RoundRect,0.050000X-0.875000X-1.250000X0.875000X-1.250000X0.875000X1.250000X-0.875000X1.250000X0*%
%ADD21RoundRect,0.050000X0.425000X-0.150000X0.425000X0.150000X-0.425000X0.150000X-0.425000X-0.150000X0*%
%ADD22RoundRect,0.050000X-0.150000X-0.425000X0.150000X-0.425000X0.150000X0.425000X-0.150000X0.425000X0*%
%ADD23RoundRect,0.050000X-2.850000X-2.850000X2.850000X-2.850000X2.850000X2.850000X-2.850000X2.850000X0*%
%ADD24RoundRect,0.050000X-0.900000X0.500000X-0.900000X-0.500000X0.900000X-0.500000X0.900000X0.500000X0*%
%ADD25O,1.300000X2.500000*%
%ADD26O,1.258000X2.416000*%
%ADD27C,0.730000*%
%ADD28RoundRect,0.050000X0.500000X1.000000X-0.500000X1.000000X-0.500000X-1.000000X0.500000X-1.000000X0*%
%ADD29C,0.700000*%
%ADD30RoundRect,0.050000X0.135000X0.500000X-0.135000X0.500000X-0.135000X-0.500000X0.135000X-0.500000X0*%
%ADD31RoundRect,0.050000X0.260000X0.500000X-0.260000X0.500000X-0.260000X-0.500000X0.260000X-0.500000X0*%
%ADD32RoundRect,0.050000X-0.150000X0.150000X-0.150000X-0.150000X0.150000X-0.150000X0.150000X0.150000X0*%
%ADD33RoundRect,0.268750X-0.256250X0.218750X-0.256250X-0.218750X0.256250X-0.218750X0.256250X0.218750X0*%
%ADD34RoundRect,0.050000X-0.430000X0.380000X-0.430000X-0.380000X0.430000X-0.380000X0.430000X0.380000X0*%
%ADD35RoundRect,0.268750X0.218750X0.256250X-0.218750X0.256250X-0.218750X-0.256250X0.218750X-0.256250X0*%
G04 APERTURE END LIST*
D10*
%TO.C,SW1*%
X158625000Y-64175000D03*
X158625000Y-68375000D03*
%TD*%
D11*
%TO.C,R1*%
X159300000Y-69700000D03*
X158280000Y-69700000D03*
%TD*%
D12*
%TO.C,J3*%
X175920000Y-64480000D03*
D13*
X175920000Y-67020000D03*
X175920000Y-69560000D03*
X175920000Y-72100000D03*
X175920000Y-74640000D03*
X175920000Y-77180000D03*
X175920000Y-79720000D03*
X175920000Y-82260000D03*
X175920000Y-84800000D03*
X175920000Y-87340000D03*
X175920000Y-89880000D03*
X175920000Y-92420000D03*
%TD*%
D12*
%TO.C,J1*%
X155740000Y-64520000D03*
D13*
X155740000Y-67060000D03*
X155740000Y-69600000D03*
X155740000Y-72140000D03*
X155740000Y-74680000D03*
X155740000Y-77220000D03*
X155740000Y-79760000D03*
X155740000Y-82300000D03*
X155740000Y-84840000D03*
X155740000Y-87380000D03*
X155740000Y-89920000D03*
X155740000Y-92460000D03*
%TD*%
D14*
%TO.C,J4*%
X158450000Y-73550000D03*
D13*
X160990000Y-73550000D03*
X163530000Y-73550000D03*
%TD*%
D15*
%TO.C,AE1*%
X170480000Y-91910000D03*
X161380000Y-91910000D03*
%TD*%
D16*
%TO.C,R2*%
X162580000Y-71230000D03*
X163550000Y-71230000D03*
%TD*%
%TO.C,C17*%
X158800000Y-82100000D03*
X157830000Y-82100000D03*
%TD*%
D17*
%TO.C,C15*%
X173240000Y-75965000D03*
X173240000Y-74995000D03*
%TD*%
D18*
%TO.C,C6*%
X167000000Y-87860000D03*
X167000000Y-88830000D03*
%TD*%
%TO.C,C7*%
X170860000Y-80120000D03*
X170860000Y-81090000D03*
%TD*%
D19*
%TO.C,PS1*%
X169100000Y-74080000D03*
X169100000Y-75030000D03*
X169100000Y-75980000D03*
X172100000Y-75980000D03*
X172100000Y-75030000D03*
X172100000Y-74080000D03*
D20*
X170600000Y-75030000D03*
%TD*%
D21*
%TO.C,IC2*%
X161600000Y-79280000D03*
X161600000Y-79780000D03*
X161600000Y-80280000D03*
X161600000Y-80780000D03*
X161600000Y-81280000D03*
X161600000Y-81780000D03*
X161600000Y-82280000D03*
X161600000Y-82780000D03*
X161600000Y-83280000D03*
X161600000Y-83780000D03*
X161600000Y-84280000D03*
X161600000Y-84780000D03*
D22*
X162300000Y-85480000D03*
X162800000Y-85480000D03*
X163300000Y-85480000D03*
X163800000Y-85480000D03*
X164300000Y-85480000D03*
X164800000Y-85480000D03*
X165300000Y-85480000D03*
X165800000Y-85480000D03*
X166300000Y-85480000D03*
X166800000Y-85480000D03*
X167300000Y-85480000D03*
X167800000Y-85480000D03*
D21*
X168500000Y-84780000D03*
X168500000Y-84280000D03*
X168500000Y-83780000D03*
X168500000Y-83280000D03*
X168500000Y-82780000D03*
X168500000Y-82280000D03*
X168500000Y-81780000D03*
X168500000Y-81280000D03*
X168500000Y-80780000D03*
X168500000Y-80280000D03*
X168500000Y-79780000D03*
X168500000Y-79280000D03*
D22*
X167800000Y-78580000D03*
X167300000Y-78580000D03*
X166800000Y-78580000D03*
X166300000Y-78580000D03*
X165800000Y-78580000D03*
X165300000Y-78580000D03*
X164800000Y-78580000D03*
X164300000Y-78580000D03*
X163800000Y-78580000D03*
X163300000Y-78580000D03*
X162800000Y-78580000D03*
X162300000Y-78580000D03*
D23*
X165050000Y-82030000D03*
%TD*%
D24*
%TO.C,Y2*%
X158800000Y-78500000D03*
X158800000Y-81000000D03*
%TD*%
D17*
%TO.C,C14*%
X172000000Y-82030000D03*
X172000000Y-83000000D03*
%TD*%
D16*
%TO.C,C16*%
X159185000Y-77400000D03*
X158215000Y-77400000D03*
%TD*%
D18*
%TO.C,C5*%
X164520000Y-87580000D03*
X164520000Y-88550000D03*
%TD*%
D25*
%TO.C,J2*%
X161505000Y-65325000D03*
X170145000Y-65325000D03*
D26*
X161505000Y-69150000D03*
X170145000Y-69150000D03*
D27*
X168825000Y-68425000D03*
D28*
X164425000Y-65325000D03*
X167225000Y-65325000D03*
D27*
X162825000Y-68425000D03*
D29*
X162825000Y-68425000D03*
D30*
X164575000Y-69525000D03*
X165075000Y-69525000D03*
X165575000Y-69525000D03*
X166075000Y-69525000D03*
X166575000Y-69525000D03*
X167075000Y-69525000D03*
X164075000Y-69525000D03*
X167575000Y-69525000D03*
D31*
X163475000Y-69525000D03*
X168175000Y-69525000D03*
X162725000Y-69525000D03*
X168925000Y-69525000D03*
%TD*%
D32*
%TO.C,FL1*%
X169110000Y-88187000D03*
X169110000Y-87600000D03*
X169110000Y-87013000D03*
X168610000Y-87013000D03*
X168610000Y-87600000D03*
X168610000Y-88187000D03*
%TD*%
D33*
%TO.C,FB1*%
X158200000Y-85200000D03*
X158200000Y-83625000D03*
%TD*%
D18*
%TO.C,C3*%
X165930000Y-88800000D03*
X165930000Y-87830000D03*
%TD*%
D17*
%TO.C,C8*%
X169730000Y-77900000D03*
X169730000Y-78870000D03*
%TD*%
D10*
%TO.C,SW2*%
X173040000Y-68310000D03*
X173040000Y-64110000D03*
%TD*%
D34*
%TO.C,Y1*%
X172355000Y-86855000D03*
X170905000Y-86855000D03*
X170905000Y-85705000D03*
X172355000Y-85705000D03*
%TD*%
D17*
%TO.C,C13*%
X166230000Y-75890000D03*
X166230000Y-74920000D03*
%TD*%
D18*
%TO.C,C9*%
X159500000Y-84400000D03*
X159500000Y-83430000D03*
%TD*%
%TO.C,C4*%
X171860000Y-81090000D03*
X171860000Y-80120000D03*
%TD*%
D17*
%TO.C,C2*%
X160500000Y-76355000D03*
X160500000Y-77325000D03*
%TD*%
%TO.C,L1*%
X171000000Y-82030000D03*
X171000000Y-83000000D03*
%TD*%
%TO.C,C11*%
X162500000Y-76000000D03*
X162500000Y-76970000D03*
%TD*%
D35*
%TO.C,C12*%
X169125000Y-72380000D03*
X170700000Y-72380000D03*
%TD*%
M02*
