%TF.GenerationSoftware,KiCad,Pcbnew,6.0.0*%
%TF.CreationDate,2022-01-30T15:16:09-05:00*%
%TF.ProjectId,stm32wb55ce_development_board,73746d33-3277-4623-9535-63655f646576,rev?*%
%TF.SameCoordinates,Original*%
%TF.FileFunction,Copper,L1,Top*%
%TF.FilePolarity,Positive*%
%FSLAX46Y46*%
G04 Gerber Fmt 4.6, Leading zero omitted, Abs format (unit mm)*
G04 Created by KiCad (PCBNEW 6.0.0) date 2022-01-30 15:16:09*
%MOMM*%
%LPD*%
G01*
G04 APERTURE LIST*
G04 Aperture macros list*
%AMRoundRect*
0 Rectangle with rounded corners*
0 $1 Rounding radius*
0 $2 $3 $4 $5 $6 $7 $8 $9 X,Y pos of 4 corners*
0 Add a 4 corners polygon primitive as box body*
4,1,4,$2,$3,$4,$5,$6,$7,$8,$9,$2,$3,0*
0 Add four circle primitives for the rounded corners*
1,1,$1+$1,$2,$3*
1,1,$1+$1,$4,$5*
1,1,$1+$1,$6,$7*
1,1,$1+$1,$8,$9*
0 Add four rect primitives between the rounded corners*
20,1,$1+$1,$2,$3,$4,$5,0*
20,1,$1+$1,$4,$5,$6,$7,0*
20,1,$1+$1,$6,$7,$8,$9,0*
20,1,$1+$1,$8,$9,$2,$3,0*%
G04 Aperture macros list end*
%TA.AperFunction,SMDPad,CuDef*%
%ADD10RoundRect,0.200000X-0.800000X0.200000X-0.800000X-0.200000X0.800000X-0.200000X0.800000X0.200000X0*%
%TD*%
%TA.AperFunction,SMDPad,CuDef*%
%ADD11RoundRect,0.135000X-0.135000X-0.185000X0.135000X-0.185000X0.135000X0.185000X-0.135000X0.185000X0*%
%TD*%
%TA.AperFunction,ComponentPad*%
%ADD12R,1.700000X1.700000*%
%TD*%
%TA.AperFunction,ComponentPad*%
%ADD13O,1.700000X1.700000*%
%TD*%
%TA.AperFunction,SMDPad,CuDef*%
%ADD14R,1.700000X3.150000*%
%TD*%
%TA.AperFunction,SMDPad,CuDef*%
%ADD15RoundRect,0.147500X-0.147500X-0.172500X0.147500X-0.172500X0.147500X0.172500X-0.147500X0.172500X0*%
%TD*%
%TA.AperFunction,SMDPad,CuDef*%
%ADD16RoundRect,0.147500X0.172500X-0.147500X0.172500X0.147500X-0.172500X0.147500X-0.172500X-0.147500X0*%
%TD*%
%TA.AperFunction,SMDPad,CuDef*%
%ADD17RoundRect,0.147500X-0.172500X0.147500X-0.172500X-0.147500X0.172500X-0.147500X0.172500X0.147500X0*%
%TD*%
%TA.AperFunction,SMDPad,CuDef*%
%ADD18R,0.800000X0.400000*%
%TD*%
%TA.AperFunction,SMDPad,CuDef*%
%ADD19R,1.750000X2.500000*%
%TD*%
%TA.AperFunction,SMDPad,CuDef*%
%ADD20R,0.850000X0.300000*%
%TD*%
%TA.AperFunction,SMDPad,CuDef*%
%ADD21R,0.300000X0.850000*%
%TD*%
%TA.AperFunction,SMDPad,CuDef*%
%ADD22R,5.700000X5.700000*%
%TD*%
%TA.AperFunction,SMDPad,CuDef*%
%ADD23R,1.800000X1.000000*%
%TD*%
%TA.AperFunction,ComponentPad*%
%ADD24O,1.200000X2.400000*%
%TD*%
%TA.AperFunction,ComponentPad*%
%ADD25O,1.158000X2.316000*%
%TD*%
%TA.AperFunction,SMDPad,CuDef*%
%ADD26R,1.000000X2.000000*%
%TD*%
%TA.AperFunction,SMDPad,CuDef*%
%ADD27R,0.270000X1.000000*%
%TD*%
%TA.AperFunction,SMDPad,CuDef*%
%ADD28R,0.520000X1.000000*%
%TD*%
%TA.AperFunction,SMDPad,CuDef*%
%ADD29R,0.300000X0.300000*%
%TD*%
%TA.AperFunction,SMDPad,CuDef*%
%ADD30RoundRect,0.218750X-0.256250X0.218750X-0.256250X-0.218750X0.256250X-0.218750X0.256250X0.218750X0*%
%TD*%
%TA.AperFunction,SMDPad,CuDef*%
%ADD31R,0.860000X0.760000*%
%TD*%
%TA.AperFunction,SMDPad,CuDef*%
%ADD32RoundRect,0.218750X0.218750X0.256250X-0.218750X0.256250X-0.218750X-0.256250X0.218750X-0.256250X0*%
%TD*%
%TA.AperFunction,ViaPad*%
%ADD33C,0.800000*%
%TD*%
%TA.AperFunction,ViaPad*%
%ADD34C,0.500000*%
%TD*%
%TA.AperFunction,Conductor*%
%ADD35C,0.250000*%
%TD*%
%TA.AperFunction,Conductor*%
%ADD36C,0.500000*%
%TD*%
%TA.AperFunction,Conductor*%
%ADD37C,0.300000*%
%TD*%
%ADD38C,0.350000*%
%ADD39C,0.250000*%
%ADD40O,0.650000X1.950000*%
%ADD41O,0.650000X1.650000*%
G04 APERTURE END LIST*
D10*
%TO.P,SW1,1*%
%TO.N,+3V3*%
X158625000Y-64175000D03*
%TO.P,SW1,2*%
%TO.N,/BOOT0*%
X158625000Y-68375000D03*
%TD*%
D11*
%TO.P,R1,2*%
%TO.N,GND*%
X159300000Y-69700000D03*
%TO.P,R1,1*%
%TO.N,/BOOT0*%
X158280000Y-69700000D03*
%TD*%
D12*
%TO.P,J3,1*%
%TO.N,+3V3*%
X175920000Y-64480000D03*
D13*
%TO.P,J3,2*%
%TO.N,GND*%
X175920000Y-67020000D03*
%TO.P,J3,3*%
%TO.N,/PA15*%
X175920000Y-69560000D03*
%TO.P,J3,4*%
%TO.N,/PB0*%
X175920000Y-72100000D03*
%TO.P,J3,5*%
%TO.N,/PB1*%
X175920000Y-74640000D03*
%TO.P,J3,6*%
%TO.N,/PA10*%
X175920000Y-77180000D03*
%TO.P,J3,7*%
%TO.N,/PB4*%
X175920000Y-79720000D03*
%TO.P,J3,8*%
%TO.N,/PB5*%
X175920000Y-82260000D03*
%TO.P,J3,9*%
%TO.N,/PB6*%
X175920000Y-84800000D03*
%TO.P,J3,10*%
%TO.N,/PB7*%
X175920000Y-87340000D03*
%TO.P,J3,11*%
%TO.N,/PB8*%
X175920000Y-89880000D03*
%TO.P,J3,12*%
%TO.N,/PB9*%
X175920000Y-92420000D03*
%TD*%
D12*
%TO.P,J1,1*%
%TO.N,+3V3*%
X155740000Y-64520000D03*
D13*
%TO.P,J1,2*%
%TO.N,GND*%
X155740000Y-67060000D03*
%TO.P,J1,3*%
%TO.N,/PA0*%
X155740000Y-69600000D03*
%TO.P,J1,4*%
%TO.N,/PA1*%
X155740000Y-72140000D03*
%TO.P,J1,5*%
%TO.N,/PA2*%
X155740000Y-74680000D03*
%TO.P,J1,6*%
%TO.N,/PA3*%
X155740000Y-77220000D03*
%TO.P,J1,7*%
%TO.N,/PA4*%
X155740000Y-79760000D03*
%TO.P,J1,8*%
%TO.N,/PA5*%
X155740000Y-82300000D03*
%TO.P,J1,9*%
%TO.N,/PA6*%
X155740000Y-84840000D03*
%TO.P,J1,10*%
%TO.N,/PA7*%
X155740000Y-87380000D03*
%TO.P,J1,11*%
%TO.N,/PA8*%
X155740000Y-89920000D03*
%TO.P,J1,12*%
%TO.N,/PA9*%
X155740000Y-92460000D03*
%TD*%
D12*
%TO.P,J4,1*%
%TO.N,GND*%
X158450000Y-73550000D03*
D13*
%TO.P,J4,2*%
%TO.N,/PA14*%
X160990000Y-73550000D03*
%TO.P,J4,3*%
%TO.N,/PA13*%
X163530000Y-73550000D03*
%TD*%
D14*
%TO.P,AE1,2*%
%TO.N,N/C*%
X170480000Y-91910000D03*
%TO.P,AE1,1*%
%TO.N,Net-(AE1-Pad1)*%
X161380000Y-91910000D03*
%TD*%
D15*
%TO.P,R2,1*%
%TO.N,GND*%
X162580000Y-71230000D03*
%TO.P,R2,2*%
%TO.N,Net-(J2-Pad3)*%
X163550000Y-71230000D03*
%TD*%
%TO.P,C17,2*%
%TO.N,GND*%
X158800000Y-82100000D03*
%TO.P,C17,1*%
%TO.N,/OSC32k_OUT*%
X157830000Y-82100000D03*
%TD*%
D16*
%TO.P,C15,1*%
%TO.N,+3V3*%
X173240000Y-75965000D03*
%TO.P,C15,2*%
%TO.N,GND*%
X173240000Y-74995000D03*
%TD*%
D17*
%TO.P,C6,1*%
%TO.N,+3V3*%
X167000000Y-87860000D03*
%TO.P,C6,2*%
%TO.N,GND*%
X167000000Y-88830000D03*
%TD*%
%TO.P,C7,1*%
%TO.N,+3V3*%
X170860000Y-80120000D03*
%TO.P,C7,2*%
%TO.N,GND*%
X170860000Y-81090000D03*
%TD*%
D18*
%TO.P,PS1,1*%
%TO.N,/VBUS*%
X169100000Y-74080000D03*
%TO.P,PS1,2*%
%TO.N,GND*%
X169100000Y-75030000D03*
%TO.P,PS1,3*%
%TO.N,Net-(PS1-Pad3)*%
X169100000Y-75980000D03*
%TO.P,PS1,4*%
%TO.N,+3V3*%
X172100000Y-75980000D03*
%TO.P,PS1,5*%
%TO.N,Net-(PS1-Pad5)*%
X172100000Y-75030000D03*
%TO.P,PS1,6*%
%TO.N,/VBUS*%
X172100000Y-74080000D03*
D19*
%TO.P,PS1,7*%
%TO.N,GND*%
X170600000Y-75030000D03*
%TD*%
D20*
%TO.P,IC2,1*%
%TO.N,+3V3*%
X161600000Y-79280000D03*
%TO.P,IC2,2*%
%TO.N,/OSC32k_IN*%
X161600000Y-79780000D03*
%TO.P,IC2,3*%
%TO.N,/OSC32k_OUT*%
X161600000Y-80280000D03*
%TO.P,IC2,4*%
%TO.N,/BOOT0*%
X161600000Y-80780000D03*
%TO.P,IC2,5*%
%TO.N,/PB8*%
X161600000Y-81280000D03*
%TO.P,IC2,6*%
%TO.N,/PB9*%
X161600000Y-81780000D03*
%TO.P,IC2,7*%
%TO.N,/RESET*%
X161600000Y-82280000D03*
%TO.P,IC2,8*%
%TO.N,/VDDA*%
X161600000Y-82780000D03*
%TO.P,IC2,9*%
%TO.N,/PA0*%
X161600000Y-83280000D03*
%TO.P,IC2,10*%
%TO.N,/PA1*%
X161600000Y-83780000D03*
%TO.P,IC2,11*%
%TO.N,/PA2*%
X161600000Y-84280000D03*
%TO.P,IC2,12*%
%TO.N,/PA3*%
X161600000Y-84780000D03*
D21*
%TO.P,IC2,13*%
%TO.N,/PA4*%
X162300000Y-85480000D03*
%TO.P,IC2,14*%
%TO.N,/PA5*%
X162800000Y-85480000D03*
%TO.P,IC2,15*%
%TO.N,/PA6*%
X163300000Y-85480000D03*
%TO.P,IC2,16*%
%TO.N,/PA7*%
X163800000Y-85480000D03*
%TO.P,IC2,17*%
%TO.N,/PA8*%
X164300000Y-85480000D03*
%TO.P,IC2,18*%
%TO.N,/PA9*%
X164800000Y-85480000D03*
%TO.P,IC2,19*%
%TO.N,/PB2*%
X165300000Y-85480000D03*
%TO.P,IC2,20*%
%TO.N,+3V3*%
X165800000Y-85480000D03*
%TO.P,IC2,21*%
%TO.N,/RF1*%
X166300000Y-85480000D03*
%TO.P,IC2,22*%
%TO.N,GND*%
X166800000Y-85480000D03*
%TO.P,IC2,23*%
%TO.N,+3V3*%
X167300000Y-85480000D03*
%TO.P,IC2,24*%
%TO.N,/OSC32M_OUT*%
X167800000Y-85480000D03*
D20*
%TO.P,IC2,25*%
%TO.N,/OSC32M_IN*%
X168500000Y-84780000D03*
%TO.P,IC2,26*%
%TO.N,Net-(IC2-Pad26)*%
X168500000Y-84280000D03*
%TO.P,IC2,27*%
%TO.N,Net-(IC2-Pad27)*%
X168500000Y-83780000D03*
%TO.P,IC2,28*%
%TO.N,/PB0*%
X168500000Y-83280000D03*
%TO.P,IC2,29*%
%TO.N,/PB1*%
X168500000Y-82780000D03*
%TO.P,IC2,30*%
%TO.N,Net-(IC2-Pad30)*%
X168500000Y-82280000D03*
%TO.P,IC2,31*%
%TO.N,/VFBSMPS*%
X168500000Y-81780000D03*
%TO.P,IC2,32*%
%TO.N,GND*%
X168500000Y-81280000D03*
%TO.P,IC2,33*%
%TO.N,/VLXSMPS*%
X168500000Y-80780000D03*
%TO.P,IC2,34*%
%TO.N,+3V3*%
X168500000Y-80280000D03*
%TO.P,IC2,35*%
X168500000Y-79780000D03*
%TO.P,IC2,36*%
%TO.N,/PA10*%
X168500000Y-79280000D03*
D21*
%TO.P,IC2,37*%
%TO.N,/D-*%
X167800000Y-78580000D03*
%TO.P,IC2,38*%
%TO.N,/D+*%
X167300000Y-78580000D03*
%TO.P,IC2,39*%
%TO.N,/PA13*%
X166800000Y-78580000D03*
%TO.P,IC2,40*%
%TO.N,+3V3*%
X166300000Y-78580000D03*
%TO.P,IC2,41*%
%TO.N,/PA14*%
X165800000Y-78580000D03*
%TO.P,IC2,42*%
%TO.N,/PA15*%
X165300000Y-78580000D03*
%TO.P,IC2,43*%
%TO.N,/PB3*%
X164800000Y-78580000D03*
%TO.P,IC2,44*%
%TO.N,/PB4*%
X164300000Y-78580000D03*
%TO.P,IC2,45*%
%TO.N,/PB5*%
X163800000Y-78580000D03*
%TO.P,IC2,46*%
%TO.N,/PB6*%
X163300000Y-78580000D03*
%TO.P,IC2,47*%
%TO.N,/PB7*%
X162800000Y-78580000D03*
%TO.P,IC2,48*%
%TO.N,+3V3*%
X162300000Y-78580000D03*
D22*
%TO.P,IC2,49*%
%TO.N,GND*%
X165050000Y-82030000D03*
%TD*%
D23*
%TO.P,Y2,1*%
%TO.N,/OSC32k_IN*%
X158800000Y-78500000D03*
%TO.P,Y2,2*%
%TO.N,/OSC32k_OUT*%
X158800000Y-81000000D03*
%TD*%
D16*
%TO.P,C14,2*%
%TO.N,GND*%
X172000000Y-82030000D03*
%TO.P,C14,1*%
%TO.N,/VFBSMPS*%
X172000000Y-83000000D03*
%TD*%
D15*
%TO.P,C16,2*%
%TO.N,GND*%
X159185000Y-77400000D03*
%TO.P,C16,1*%
%TO.N,/OSC32k_IN*%
X158215000Y-77400000D03*
%TD*%
D17*
%TO.P,C5,1*%
%TO.N,+3V3*%
X164520000Y-87580000D03*
%TO.P,C5,2*%
%TO.N,GND*%
X164520000Y-88550000D03*
%TD*%
D24*
%TO.P,J2,S6*%
%TO.N,Net-(J2-PadS6)*%
X161505000Y-65325000D03*
%TO.P,J2,S5*%
%TO.N,Net-(J2-PadS5)*%
X170145000Y-65325000D03*
D25*
%TO.P,J2,S4*%
%TO.N,Net-(J2-PadS4)*%
X161505000Y-69150000D03*
%TO.P,J2,S3*%
%TO.N,Net-(J2-PadS3)*%
X170145000Y-69150000D03*
D26*
%TO.P,J2,S2*%
%TO.N,Net-(J2-PadS2)*%
X164425000Y-65325000D03*
%TO.P,J2,S1*%
%TO.N,Net-(J2-PadS1)*%
X167225000Y-65325000D03*
D27*
%TO.P,J2,9*%
%TO.N,Net-(J2-Pad3)*%
X164575000Y-69525000D03*
%TO.P,J2,8*%
%TO.N,/D-*%
X165075000Y-69525000D03*
%TO.P,J2,7*%
%TO.N,/D+*%
X165575000Y-69525000D03*
%TO.P,J2,6*%
X166075000Y-69525000D03*
%TO.P,J2,5*%
%TO.N,/D-*%
X166575000Y-69525000D03*
%TO.P,J2,4*%
%TO.N,Net-(J2-Pad4)*%
X167075000Y-69525000D03*
%TO.P,J2,10*%
%TO.N,Net-(J2-Pad10)*%
X164075000Y-69525000D03*
%TO.P,J2,3*%
%TO.N,Net-(J2-Pad3)*%
X167575000Y-69525000D03*
D28*
%TO.P,J2,11*%
%TO.N,/VBUS*%
X163475000Y-69525000D03*
%TO.P,J2,2*%
X168175000Y-69525000D03*
%TO.P,J2,12*%
%TO.N,GND*%
X162725000Y-69525000D03*
%TO.P,J2,1*%
X168925000Y-69525000D03*
%TD*%
D29*
%TO.P,FL1,1*%
%TO.N,Net-(AE1-Pad1)*%
X169110000Y-88187000D03*
%TO.P,FL1,2*%
%TO.N,GND*%
X169110000Y-87600000D03*
%TO.P,FL1,3*%
%TO.N,/RF1*%
X169110000Y-87013000D03*
%TO.P,FL1,4*%
%TO.N,GND*%
X168610000Y-87013000D03*
%TO.P,FL1,5*%
X168610000Y-87600000D03*
%TO.P,FL1,6*%
X168610000Y-88187000D03*
%TD*%
D30*
%TO.P,FB1,2*%
%TO.N,+3V3*%
X158200000Y-85200000D03*
%TO.P,FB1,1*%
%TO.N,/VDDA*%
X158200000Y-83625000D03*
%TD*%
D17*
%TO.P,C3,2*%
%TO.N,GND*%
X165930000Y-88800000D03*
%TO.P,C3,1*%
%TO.N,+3V3*%
X165930000Y-87830000D03*
%TD*%
D16*
%TO.P,C8,2*%
%TO.N,GND*%
X169730000Y-77900000D03*
%TO.P,C8,1*%
%TO.N,+3V3*%
X169730000Y-78870000D03*
%TD*%
D10*
%TO.P,SW2,2*%
%TO.N,/RESET*%
X173040000Y-68310000D03*
%TO.P,SW2,1*%
%TO.N,GND*%
X173040000Y-64110000D03*
%TD*%
D31*
%TO.P,Y1,4*%
%TO.N,N/C*%
X172355000Y-86855000D03*
%TO.P,Y1,3*%
%TO.N,/OSC32M_OUT*%
X170905000Y-86855000D03*
%TO.P,Y1,2*%
%TO.N,GND*%
X170905000Y-85705000D03*
%TO.P,Y1,1*%
%TO.N,/OSC32M_IN*%
X172355000Y-85705000D03*
%TD*%
D16*
%TO.P,C13,1*%
%TO.N,+3V3*%
X166230000Y-75890000D03*
%TO.P,C13,2*%
%TO.N,GND*%
X166230000Y-74920000D03*
%TD*%
D17*
%TO.P,C9,2*%
%TO.N,GND*%
X159500000Y-84400000D03*
%TO.P,C9,1*%
%TO.N,/VDDA*%
X159500000Y-83430000D03*
%TD*%
%TO.P,C4,2*%
%TO.N,GND*%
X171860000Y-81090000D03*
%TO.P,C4,1*%
%TO.N,+3V3*%
X171860000Y-80120000D03*
%TD*%
D16*
%TO.P,C2,2*%
%TO.N,GND*%
X160500000Y-76355000D03*
%TO.P,C2,1*%
%TO.N,+3V3*%
X160500000Y-77325000D03*
%TD*%
%TO.P,L1,2*%
%TO.N,/VLXSMPS*%
X171000000Y-82030000D03*
%TO.P,L1,1*%
%TO.N,/VFBSMPS*%
X171000000Y-83000000D03*
%TD*%
%TO.P,C11,2*%
%TO.N,GND*%
X162500000Y-76000000D03*
%TO.P,C11,1*%
%TO.N,+3V3*%
X162500000Y-76970000D03*
%TD*%
D32*
%TO.P,C12,2*%
%TO.N,GND*%
X169125000Y-72380000D03*
%TO.P,C12,1*%
%TO.N,/VBUS*%
X170700000Y-72380000D03*
%TD*%
D33*
%TO.N,GND*%
X166240000Y-74110000D03*
D34*
X169160005Y-81280000D03*
X165050000Y-82030000D03*
D33*
X161800000Y-71230000D03*
X170630000Y-76790000D03*
X160500000Y-75500000D03*
X169740000Y-77120000D03*
X172660000Y-81120000D03*
X173300000Y-74190000D03*
X167950000Y-72440000D03*
X172750000Y-82250000D03*
X163250000Y-76000000D03*
D34*
X169000000Y-75000000D03*
X165900000Y-88850000D03*
X164530000Y-89210000D03*
X167000000Y-88850000D03*
D33*
X167880000Y-88340000D03*
D34*
X166810000Y-86250000D03*
X159185000Y-77400000D03*
X158800000Y-82100000D03*
X159485464Y-84962744D03*
X170900000Y-85700000D03*
%TO.N,+3V3*%
X161750000Y-77000000D03*
D33*
X174250000Y-76000000D03*
D34*
X161250000Y-77250000D03*
D33*
X170520000Y-78850000D03*
X171870000Y-79330000D03*
X167060000Y-75900000D03*
D34*
X164485618Y-87545618D03*
X165930000Y-87830000D03*
X158100000Y-85300000D03*
%TO.N,/RF1*%
X166300000Y-86960000D03*
X167957103Y-86992897D03*
%TO.N,/PB7*%
X162633920Y-77733614D03*
%TO.N,/PB6*%
X163233456Y-77709731D03*
%TO.N,/PB5*%
X163827143Y-77622842D03*
%TO.N,/PB4*%
X164546156Y-77703854D03*
%TO.N,/PA15*%
X165000000Y-76500000D03*
%TO.N,/PA10*%
X168500000Y-78750000D03*
%TO.N,/PB0*%
X170000000Y-84000000D03*
X174000000Y-79000000D03*
X174000000Y-77350000D03*
%TO.N,/PA9*%
X164963226Y-86222957D03*
%TO.N,/PA8*%
X164344976Y-86207900D03*
%TO.N,/PA1*%
X160620006Y-83869996D03*
%TO.N,/PA0*%
X160793315Y-83250010D03*
%TO.N,/RESET*%
X165800000Y-72600000D03*
%TO.N,/PB9*%
X160180002Y-81780000D03*
%TO.N,/PB8*%
X160667281Y-81181854D03*
%TO.N,/PA7*%
X163671457Y-86336682D03*
%TO.N,/PA6*%
X163124335Y-86582997D03*
%TO.N,/PA5*%
X162527921Y-86517385D03*
%TO.N,/PA4*%
X161750000Y-86500000D03*
%TO.N,/PA3*%
X161434517Y-85728421D03*
%TO.N,/PA2*%
X160750000Y-84500000D03*
D33*
%TO.N,GND*%
X173050000Y-64150000D03*
D34*
X159300000Y-69675000D03*
D33*
X162625000Y-69975000D03*
X169050000Y-69975000D03*
%TO.N,+3V3*%
X158625000Y-64175000D03*
D34*
%TO.N,/BOOT0*%
X160200000Y-80755000D03*
X159775000Y-71650000D03*
%TO.N,/RESET*%
X172125000Y-70200000D03*
%TD*%
D35*
%TO.N,Net-(AE1-Pad1)*%
X169110000Y-88187000D02*
X169110000Y-88877000D01*
X169110000Y-88877000D02*
X168087000Y-89900000D01*
X163390000Y-89900000D02*
X161380000Y-91910000D01*
X168087000Y-89900000D02*
X163390000Y-89900000D01*
D36*
%TO.N,/VBUS*%
X172100000Y-73594998D02*
X172100000Y-74080000D01*
X169100000Y-73594998D02*
X169364999Y-73329999D01*
X171835001Y-73329999D02*
X172100000Y-73594998D01*
X169100000Y-74080000D02*
X169100000Y-73594998D01*
X170700000Y-73300000D02*
X170670001Y-73329999D01*
X170700000Y-72380000D02*
X170700000Y-73300000D01*
X170670001Y-73329999D02*
X171835001Y-73329999D01*
X169364999Y-73329999D02*
X170670001Y-73329999D01*
X170750000Y-72330000D02*
X170700000Y-72380000D01*
%TO.N,GND*%
X171860000Y-81090000D02*
X172630000Y-81090000D01*
D37*
X170860000Y-81090000D02*
X171860000Y-81090000D01*
X172530000Y-82030000D02*
X172750000Y-82250000D01*
X172000000Y-82030000D02*
X172530000Y-82030000D01*
X168500000Y-81280000D02*
X169160005Y-81280000D01*
D36*
X162580000Y-71230000D02*
X161800000Y-71230000D01*
X170630000Y-75060000D02*
X170600000Y-75030000D01*
X170630000Y-76790000D02*
X170630000Y-75060000D01*
X160500000Y-76355000D02*
X160500000Y-75500000D01*
X168010000Y-72380000D02*
X167950000Y-72440000D01*
X169125000Y-72380000D02*
X168010000Y-72380000D01*
X165050000Y-82030000D02*
X165050000Y-82130000D01*
X166230000Y-74120000D02*
X166240000Y-74110000D01*
X166230000Y-74920000D02*
X166230000Y-74120000D01*
X169730000Y-77130000D02*
X169740000Y-77120000D01*
X169730000Y-77900000D02*
X169730000Y-77130000D01*
X172630000Y-81090000D02*
X172660000Y-81120000D01*
D37*
X162500000Y-76000000D02*
X163250000Y-76000000D01*
D36*
X173250000Y-74240000D02*
X173300000Y-74190000D01*
X173250000Y-74995000D02*
X173250000Y-74240000D01*
D35*
X169030000Y-75030000D02*
X169000000Y-75000000D01*
X169100000Y-75030000D02*
X169030000Y-75030000D01*
X165930000Y-88820000D02*
X165900000Y-88850000D01*
X165930000Y-88800000D02*
X165930000Y-88820000D01*
X166840000Y-88830000D02*
X166830000Y-88820000D01*
X166860000Y-88830000D02*
X166840000Y-88830000D01*
X164520000Y-89200000D02*
X164530000Y-89210000D01*
X164520000Y-88550000D02*
X164520000Y-89200000D01*
X167000000Y-88830000D02*
X167000000Y-88850000D01*
X168610000Y-87013000D02*
X168610000Y-87600000D01*
X169110000Y-87600000D02*
X168610000Y-87600000D01*
X168610000Y-87600000D02*
X168610000Y-88187000D01*
X168130000Y-87600000D02*
X167950000Y-87780000D01*
X168610000Y-87600000D02*
X168130000Y-87600000D01*
X167950000Y-88270000D02*
X167880000Y-88340000D01*
X167950000Y-87780000D02*
X167950000Y-88270000D01*
X166800000Y-86240000D02*
X166810000Y-86250000D01*
X166800000Y-85480000D02*
X166800000Y-86240000D01*
X159185000Y-77400000D02*
X159200000Y-77400000D01*
X159500000Y-84948208D02*
X159485464Y-84962744D01*
X159500000Y-84400000D02*
X159500000Y-84948208D01*
X170905000Y-85705000D02*
X170900000Y-85700000D01*
D36*
%TO.N,/VBUS*%
X168159999Y-68209999D02*
X168159999Y-69509999D01*
X167324970Y-67374970D02*
X168159999Y-68209999D01*
X168159999Y-69509999D02*
X168175000Y-69525000D01*
X165035880Y-67374970D02*
X167324970Y-67374970D01*
X163475000Y-68935850D02*
X165035880Y-67374970D01*
X163475000Y-69525000D02*
X163475000Y-68935850D01*
X170700000Y-72380000D02*
X170700000Y-71525000D01*
X170700000Y-71525000D02*
X170200000Y-71025000D01*
X168175000Y-70210002D02*
X168175000Y-69525000D01*
X168989998Y-71025000D02*
X168175000Y-70210002D01*
X170200000Y-71025000D02*
X168989998Y-71025000D01*
D37*
%TO.N,+3V3*%
X161600000Y-79280000D02*
X161330000Y-79280000D01*
X170860000Y-80120000D02*
X171860000Y-80120000D01*
D36*
X173235000Y-75980000D02*
X173235000Y-75980000D01*
D37*
X162133919Y-77336081D02*
X162500000Y-76970000D01*
X162300000Y-78139696D02*
X162133919Y-77973615D01*
X162300000Y-78580000D02*
X162300000Y-78139696D01*
X161600000Y-78425000D02*
X160500000Y-77325000D01*
X161600000Y-79280000D02*
X161600000Y-78425000D01*
X165800000Y-85480000D02*
X165800000Y-86700000D01*
X161780000Y-76970000D02*
X161750000Y-77000000D01*
X162500000Y-76970000D02*
X161780000Y-76970000D01*
X170700000Y-80280000D02*
X170860000Y-80120000D01*
X168500000Y-80280000D02*
X170700000Y-80280000D01*
X169730000Y-79275000D02*
X169730000Y-78870000D01*
X169225000Y-79780000D02*
X169730000Y-79275000D01*
X168500000Y-79780000D02*
X169225000Y-79780000D01*
X166300000Y-75960000D02*
X166230000Y-75890000D01*
X166300000Y-78580000D02*
X166300000Y-75960000D01*
X161175000Y-77325000D02*
X161250000Y-77250000D01*
X160500000Y-77325000D02*
X161175000Y-77325000D01*
X162133919Y-77973615D02*
X162133919Y-77336081D01*
D36*
X172100000Y-75980000D02*
X173235000Y-75980000D01*
X173235000Y-75980000D02*
X173250000Y-75965000D01*
X174045000Y-75965000D02*
X174050000Y-75970000D01*
X173250000Y-75965000D02*
X174045000Y-75965000D01*
X170500000Y-78870000D02*
X170520000Y-78850000D01*
X169730000Y-78870000D02*
X170500000Y-78870000D01*
X171860000Y-79340000D02*
X171870000Y-79330000D01*
X171860000Y-80120000D02*
X171860000Y-79340000D01*
X167050000Y-75890000D02*
X167060000Y-75900000D01*
X166230000Y-75890000D02*
X167050000Y-75890000D01*
D35*
X165400000Y-86700000D02*
X164520000Y-87580000D01*
X165800000Y-86700000D02*
X165400000Y-86700000D01*
X164520000Y-87580000D02*
X164485618Y-87545618D01*
X167300000Y-87560000D02*
X167000000Y-87860000D01*
X167300000Y-85480000D02*
X167300000Y-87560000D01*
X165960000Y-87860000D02*
X165930000Y-87830000D01*
X167000000Y-87860000D02*
X165960000Y-87860000D01*
X158200000Y-85200000D02*
X158100000Y-85300000D01*
%TO.N,/VFBSMPS*%
X171000000Y-83000000D02*
X172000000Y-83000000D01*
D37*
X170946414Y-83000000D02*
X171000000Y-83000000D01*
X168500000Y-81780000D02*
X169726414Y-81780000D01*
X169726414Y-81780000D02*
X170946414Y-83000000D01*
D35*
%TO.N,/RF1*%
X166300000Y-85480000D02*
X166300000Y-86960000D01*
X169110000Y-86807998D02*
X169110000Y-87013000D01*
X168940001Y-86637999D02*
X169110000Y-86807998D01*
X168312001Y-86637999D02*
X168940001Y-86637999D01*
X167957103Y-86992897D02*
X168312001Y-86637999D01*
%TO.N,/D+*%
X166974989Y-71724989D02*
X166974989Y-72884979D01*
X166974989Y-72884979D02*
X168124989Y-74034979D01*
X167300000Y-77079990D02*
X167300000Y-78580000D01*
X168124989Y-76255001D02*
X167300000Y-77079990D01*
X168124989Y-74034979D02*
X168124989Y-76255001D01*
%TO.N,/D-*%
X167324999Y-72740001D02*
X168474999Y-73890001D01*
X167324999Y-71574999D02*
X167324999Y-72740001D01*
X167800000Y-78399998D02*
X167800000Y-78580000D01*
X167800000Y-77074978D02*
X167800000Y-78580000D01*
X168474999Y-76399979D02*
X167800000Y-77074978D01*
X168474999Y-73890001D02*
X168474999Y-76399979D01*
D37*
%TO.N,/VLXSMPS*%
X170712880Y-82030000D02*
X171000000Y-82030000D01*
X169462880Y-80780000D02*
X170712880Y-82030000D01*
X168500000Y-80780000D02*
X169462880Y-80780000D01*
%TO.N,/VDDA*%
X160483447Y-82750000D02*
X161570000Y-82750000D01*
X161570000Y-82750000D02*
X161600000Y-82780000D01*
D35*
X160180000Y-82750000D02*
X159500000Y-83430000D01*
X160483447Y-82750000D02*
X160180000Y-82750000D01*
X158395000Y-83430000D02*
X158200000Y-83625000D01*
X159500000Y-83430000D02*
X158395000Y-83430000D01*
D37*
%TO.N,/PB7*%
X162800000Y-78580000D02*
X162733454Y-78513454D01*
X162733454Y-77833148D02*
X162633920Y-77733614D01*
X162733454Y-78513454D02*
X162733454Y-77833148D01*
%TO.N,/PB6*%
X163300000Y-78580000D02*
X163300000Y-78787120D01*
X163300000Y-77776275D02*
X163233456Y-77709731D01*
X163300000Y-78580000D02*
X163300000Y-77776275D01*
%TO.N,/PB5*%
X163800000Y-77649985D02*
X163827143Y-77622842D01*
X163800000Y-78580000D02*
X163800000Y-77649985D01*
%TO.N,/PB4*%
X164300000Y-77950010D02*
X164546156Y-77703854D01*
X164300000Y-78580000D02*
X164300000Y-77950010D01*
D35*
%TO.N,/PA15*%
X165300000Y-76800000D02*
X165000000Y-76500000D01*
X165300000Y-78580000D02*
X165300000Y-76800000D01*
%TO.N,/PA14*%
X162814999Y-75374999D02*
X160990000Y-73550000D01*
X164691413Y-75374999D02*
X162814999Y-75374999D01*
X165800000Y-76483586D02*
X164691413Y-75374999D01*
X165800000Y-78580000D02*
X165800000Y-76483586D01*
%TO.N,/PA13*%
X167685001Y-75520003D02*
X166865001Y-74700003D01*
X167685001Y-76200001D02*
X167685001Y-75520003D01*
X166865001Y-74700003D02*
X166865001Y-73809999D01*
X163595001Y-73484999D02*
X163530000Y-73550000D01*
X166540001Y-73484999D02*
X163595001Y-73484999D01*
X166865001Y-73809999D02*
X166540001Y-73484999D01*
X166800000Y-77085002D02*
X167685001Y-76200001D01*
X166800000Y-78580000D02*
X166800000Y-77085002D01*
D37*
%TO.N,/PA10*%
X168500000Y-79280000D02*
X168500000Y-78750000D01*
%TO.N,/PB1*%
X170723806Y-83747392D02*
X172752608Y-83747392D01*
X169756414Y-82780000D02*
X170723806Y-83747392D01*
X168500000Y-82780000D02*
X169756414Y-82780000D01*
X172752608Y-83747392D02*
X173250000Y-83250000D01*
D35*
X173375001Y-83124999D02*
X173375001Y-81284999D01*
X173250000Y-83250000D02*
X173375001Y-83124999D01*
X175920000Y-75255002D02*
X175920000Y-74640000D01*
X174475001Y-76700001D02*
X175920000Y-75255002D01*
X174475001Y-80184999D02*
X174475001Y-76700001D01*
X173375001Y-81284999D02*
X174475001Y-80184999D01*
D37*
%TO.N,/PB0*%
X168500000Y-83280000D02*
X169100010Y-83280000D01*
X169100010Y-83280000D02*
X169660005Y-83839995D01*
D35*
X169839995Y-83839995D02*
X170000000Y-84000000D01*
X169660005Y-83839995D02*
X169839995Y-83839995D01*
X174000000Y-79000000D02*
X174000000Y-78120000D01*
X174000000Y-78120000D02*
X174000000Y-77350000D01*
D37*
%TO.N,/PA9*%
X164800000Y-85946457D02*
X164963226Y-86109683D01*
X164963226Y-86109683D02*
X164963226Y-86222957D01*
X164800000Y-85480000D02*
X164800000Y-85946457D01*
%TO.N,/PA8*%
X164300000Y-85480000D02*
X164300000Y-86162924D01*
X164300000Y-86162924D02*
X164344976Y-86207900D01*
%TO.N,/PA1*%
X160710002Y-83780000D02*
X160620006Y-83869996D01*
X161600000Y-83780000D02*
X160710002Y-83780000D01*
%TO.N,/PA0*%
X161600000Y-83280000D02*
X160823305Y-83280000D01*
X160823305Y-83280000D02*
X160793315Y-83250010D01*
D35*
%TO.N,/RESET*%
X159914999Y-73033999D02*
X160473999Y-72474999D01*
X159914999Y-74853191D02*
X159914999Y-73033999D01*
X157309990Y-82426800D02*
X157309990Y-77458200D01*
X157528200Y-82645010D02*
X157309990Y-82426800D01*
X165674999Y-72474999D02*
X165800000Y-72600000D01*
X159101800Y-82645010D02*
X157528200Y-82645010D01*
X157309990Y-77458200D02*
X159914999Y-74853191D01*
X159466810Y-82280000D02*
X159101800Y-82645010D01*
X160473999Y-72474999D02*
X165674999Y-72474999D01*
X161600000Y-82280000D02*
X159466810Y-82280000D01*
D37*
%TO.N,/PB9*%
X161600000Y-81780000D02*
X160180002Y-81780000D01*
%TO.N,/PB8*%
X160765427Y-81280000D02*
X160667281Y-81181854D01*
X161600000Y-81280000D02*
X160765427Y-81280000D01*
%TO.N,/OSC32k_IN*%
X161600000Y-79780000D02*
X160980000Y-79780000D01*
D35*
X160080000Y-79780000D02*
X158800000Y-78500000D01*
X160980000Y-79780000D02*
X160080000Y-79780000D01*
X158800000Y-77985000D02*
X158215000Y-77400000D01*
X158800000Y-78500000D02*
X158800000Y-77985000D01*
%TO.N,/OSC32k_OUT*%
X159520000Y-80280000D02*
X158800000Y-81000000D01*
X161600000Y-80280000D02*
X159520000Y-80280000D01*
X158800000Y-81130000D02*
X157830000Y-82100000D01*
X158800000Y-81000000D02*
X158800000Y-81130000D01*
%TO.N,/OSC32M_IN*%
X171430000Y-84780000D02*
X172355000Y-85705000D01*
X168500000Y-84780000D02*
X171430000Y-84780000D01*
%TO.N,/OSC32M_OUT*%
X169530000Y-85480000D02*
X170905000Y-86855000D01*
X167800000Y-85480000D02*
X169530000Y-85480000D01*
D37*
%TO.N,/PA7*%
X163800000Y-86208139D02*
X163671457Y-86336682D01*
X163800000Y-85480000D02*
X163800000Y-86208139D01*
D36*
%TO.N,/PA6*%
X155780000Y-84950000D02*
X155790000Y-84960000D01*
D37*
X163162089Y-86112946D02*
X163162089Y-86545243D01*
X163300000Y-85480000D02*
X163300000Y-85975035D01*
X163162089Y-86545243D02*
X163124335Y-86582997D01*
X163300000Y-85975035D02*
X163162089Y-86112946D01*
%TO.N,/PA5*%
X156025000Y-82170000D02*
X155780000Y-82415000D01*
D35*
X155442436Y-81649990D02*
X155079990Y-82012436D01*
D37*
X162527921Y-86439407D02*
X162527921Y-86517385D01*
X162762078Y-85517922D02*
X162762078Y-86205250D01*
X162762078Y-86205250D02*
X162527921Y-86439407D01*
X162800000Y-85480000D02*
X162762078Y-85517922D01*
D35*
%TO.N,/PA4*%
X162300000Y-85480000D02*
X162300000Y-85750000D01*
D37*
X162300000Y-85480000D02*
X162300000Y-85950000D01*
X162300000Y-85950000D02*
X161750000Y-86500000D01*
%TO.N,/PA3*%
X161600000Y-84780000D02*
X161600000Y-85562938D01*
X161600000Y-85562938D02*
X161434517Y-85728421D01*
%TO.N,/PA2*%
X160970000Y-84280000D02*
X160750000Y-84500000D01*
X161600000Y-84280000D02*
X160970000Y-84280000D01*
D35*
%TO.N,GND*%
X173040000Y-64140000D02*
X173050000Y-64150000D01*
X173040000Y-64110000D02*
X173040000Y-64140000D01*
X159300000Y-69700000D02*
X159300000Y-69675000D01*
D36*
X162725000Y-69875000D02*
X162625000Y-69975000D01*
X162725000Y-69525000D02*
X162725000Y-69875000D01*
X168925000Y-69850000D02*
X169050000Y-69975000D01*
X168925000Y-69525000D02*
X168925000Y-69850000D01*
D35*
%TO.N,/D+*%
X165575000Y-69525000D02*
X165575000Y-68675000D01*
X165575000Y-68675000D02*
X165700000Y-68550000D01*
X165700000Y-68550000D02*
X165925000Y-68550000D01*
X166075000Y-68700000D02*
X166075000Y-69525000D01*
X165925000Y-68550000D02*
X166075000Y-68700000D01*
X166075000Y-70825000D02*
X166974989Y-71724989D01*
X166075000Y-69525000D02*
X166075000Y-70825000D01*
%TO.N,/D-*%
X165555022Y-68199990D02*
X166074990Y-68199990D01*
X165075000Y-68680012D02*
X165555022Y-68199990D01*
X165075000Y-69525000D02*
X165075000Y-68680012D01*
X166575000Y-68700000D02*
X166575000Y-69525000D01*
X166074990Y-68199990D02*
X166575000Y-68700000D01*
X166575000Y-70825000D02*
X167324999Y-71574999D01*
X166575000Y-69525000D02*
X166575000Y-70825000D01*
%TO.N,/BOOT0*%
X160333706Y-80755000D02*
X160200000Y-80755000D01*
X160381853Y-80706853D02*
X160333706Y-80755000D01*
X161526853Y-80706853D02*
X160381853Y-80706853D01*
X161600000Y-80780000D02*
X161526853Y-80706853D01*
X158280000Y-70155000D02*
X158280000Y-69700000D01*
X159775000Y-71650000D02*
X158280000Y-70155000D01*
X158280000Y-68720000D02*
X158625000Y-68375000D01*
X158280000Y-69700000D02*
X158280000Y-68720000D01*
%TO.N,/RESET*%
X172125000Y-70200000D02*
X173000000Y-69325000D01*
X173000000Y-68350000D02*
X173040000Y-68310000D01*
X173000000Y-69325000D02*
X173000000Y-68350000D01*
%TO.N,Net-(J2-Pad3)*%
X165410044Y-67849980D02*
X167124980Y-67849980D01*
X164575000Y-68685024D02*
X165410044Y-67849980D01*
X164575000Y-69525000D02*
X164575000Y-68685024D01*
X167575000Y-68300000D02*
X167575000Y-69525000D01*
X167124980Y-67849980D02*
X167575000Y-68300000D01*
X164575000Y-70205000D02*
X163550000Y-71230000D01*
X164575000Y-69525000D02*
X164575000Y-70205000D01*
%TD*%
D38*
X166240000Y-74110000D03*
D39*
X169160005Y-81280000D03*
X165050000Y-82030000D03*
D38*
X161800000Y-71230000D03*
X170630000Y-76790000D03*
X160500000Y-75500000D03*
X169740000Y-77120000D03*
X172660000Y-81120000D03*
X173300000Y-74190000D03*
X167950000Y-72440000D03*
X172750000Y-82250000D03*
X163250000Y-76000000D03*
D39*
X169000000Y-75000000D03*
X165900000Y-88850000D03*
X164530000Y-89210000D03*
X167000000Y-88850000D03*
D38*
X167880000Y-88340000D03*
D39*
X166810000Y-86250000D03*
X159185000Y-77400000D03*
X158800000Y-82100000D03*
X159485464Y-84962744D03*
X170900000Y-85700000D03*
X161750000Y-77000000D03*
D38*
X174250000Y-76000000D03*
D39*
X161250000Y-77250000D03*
D38*
X170520000Y-78850000D03*
X171870000Y-79330000D03*
X167060000Y-75900000D03*
D39*
X164485618Y-87545618D03*
X165930000Y-87830000D03*
X158100000Y-85300000D03*
X166300000Y-86960000D03*
X167957103Y-86992897D03*
X162633920Y-77733614D03*
X163233456Y-77709731D03*
X163827143Y-77622842D03*
X164546156Y-77703854D03*
X165000000Y-76500000D03*
X168500000Y-78750000D03*
X170000000Y-84000000D03*
X174000000Y-79000000D03*
X174000000Y-77350000D03*
X164963226Y-86222957D03*
X164344976Y-86207900D03*
X160620006Y-83869996D03*
X160793315Y-83250010D03*
X165800000Y-72600000D03*
X160180002Y-81780000D03*
X160667281Y-81181854D03*
X163671457Y-86336682D03*
X163124335Y-86582997D03*
X162527921Y-86517385D03*
X161750000Y-86500000D03*
X161434517Y-85728421D03*
X160750000Y-84500000D03*
D38*
X173050000Y-64150000D03*
D39*
X159300000Y-69675000D03*
D38*
X162625000Y-69975000D03*
X169050000Y-69975000D03*
X158625000Y-64175000D03*
D39*
X160200000Y-80755000D03*
X159775000Y-71650000D03*
X172125000Y-70200000D03*
D38*
X175920000Y-64480000D03*
X175920000Y-67020000D03*
X175920000Y-69560000D03*
X175920000Y-72100000D03*
X175920000Y-74640000D03*
X175920000Y-77180000D03*
X175920000Y-79720000D03*
X175920000Y-82260000D03*
X175920000Y-84800000D03*
X175920000Y-87340000D03*
X175920000Y-89880000D03*
X175920000Y-92420000D03*
X155740000Y-64520000D03*
X155740000Y-67060000D03*
X155740000Y-69600000D03*
X155740000Y-72140000D03*
X155740000Y-74680000D03*
X155740000Y-77220000D03*
X155740000Y-79760000D03*
X155740000Y-82300000D03*
X155740000Y-84840000D03*
X155740000Y-87380000D03*
X155740000Y-89920000D03*
X155740000Y-92460000D03*
X158450000Y-73550000D03*
X160990000Y-73550000D03*
X163530000Y-73550000D03*
D40*
X161505000Y-65325000D03*
X170145000Y-65325000D03*
D41*
X161505000Y-69150000D03*
X170145000Y-69150000D03*
D38*
X168825000Y-68425000D03*
X162825000Y-68425000D03*
X162825000Y-68425000D03*
M02*
